<svg viewBox="0 0 320 260" xmlns="http://www.w3.org/2000/svg" role="img" aria-label="Cálculo de la media mediante tabla de frecuencia">
<rect x="40" y="40" width="70" height="28" stroke="#1f2937" fill="#dbeafe" fill-opacity="1.0" rx="0"/>
<text x="75.0" y="59.0" font-size="11" fill="#1f2937" text-anchor="middle" font-weight="600" font-family="sans-serif">x</text>
<rect x="110" y="40" width="70" height="28" stroke="#1f2937" fill="#dbeafe" fill-opacity="1.0" rx="0"/>
<text x="145.0" y="59.0" font-size="11" fill="#1f2937" text-anchor="middle" font-weight="600" font-family="sans-serif">f</text>
<rect x="180" y="40" width="70" height="28" stroke="#1f2937" fill="#dbeafe" fill-opacity="1.0" rx="0"/>
<text x="215.0" y="59.0" font-size="11" fill="#1f2937" text-anchor="middle" font-weight="600" font-family="sans-serif">x·f</text>
<rect x="40" y="68" width="70" height="28" stroke="#1f2937" fill="none" fill-opacity="0.5" rx="0"/>
<text x="75.0" y="87.0" font-size="11" fill="#1f2937" text-anchor="middle" font-weight="normal" font-family="sans-serif">4</text>
<rect x="110" y="68" width="70" height="28" stroke="#1f2937" fill="none" fill-opacity="0.5" rx="0"/>
<text x="145.0" y="87.0" font-size="11" fill="#1f2937" text-anchor="middle" font-weight="normal" font-family="sans-serif">1</text>
<rect x="180" y="68" width="70" height="28" stroke="#1f2937" fill="none" fill-opacity="0.5" rx="0"/>
<text x="215.0" y="87.0" font-size="11" fill="#1f2937" text-anchor="middle" font-weight="normal" font-family="sans-serif">4</text>
<rect x="40" y="96" width="70" height="28" stroke="#1f2937" fill="none" fill-opacity="0.5" rx="0"/>
<text x="75.0" y="115.0" font-size="11" fill="#1f2937" text-anchor="middle" font-weight="normal" font-family="sans-serif">5</text>
<rect x="110" y="96" width="70" height="28" stroke="#1f2937" fill="none" fill-opacity="0.5" rx="0"/>
<text x="145.0" y="115.0" font-size="11" fill="#1f2937" text-anchor="middle" font-weight="normal" font-family="sans-serif">2</text>
<rect x="180" y="96" width="70" height="28" stroke="#1f2937" fill="none" fill-opacity="0.5" rx="0"/>
<text x="215.0" y="115.0" font-size="11" fill="#1f2937" text-anchor="middle" font-weight="normal" font-family="sans-serif">10</text>
<rect x="40" y="124" width="70" height="28" stroke="#1f2937" fill="none" fill-opacity="0.5" rx="0"/>
<text x="75.0" y="143.0" font-size="11" fill="#1f2937" text-anchor="middle" font-weight="normal" font-family="sans-serif">6</text>
<rect x="110" y="124" width="70" height="28" stroke="#1f2937" fill="none" fill-opacity="0.5" rx="0"/>
<text x="145.0" y="143.0" font-size="11" fill="#1f2937" text-anchor="middle" font-weight="normal" font-family="sans-serif">3</text>
<rect x="180" y="124" width="70" height="28" stroke="#1f2937" fill="none" fill-opacity="0.5" rx="0"/>
<text x="215.0" y="143.0" font-size="11" fill="#1f2937" text-anchor="middle" font-weight="normal" font-family="sans-serif">18</text>
</svg>
