<svg viewBox="0 0 320 260" xmlns="http://www.w3.org/2000/svg" role="img" aria-label="Construcción de tablas con datos en intervalos">
<rect x="40" y="40" width="80" height="28" stroke="#1f2937" fill="#dbeafe" fill-opacity="1.0" rx="0"/>
<text x="80.0" y="59.0" font-size="11" fill="#1f2937" text-anchor="middle" font-weight="600" font-family="sans-serif">Int.</text>
<rect x="120" y="40" width="80" height="28" stroke="#1f2937" fill="#dbeafe" fill-opacity="1.0" rx="0"/>
<text x="160.0" y="59.0" font-size="11" fill="#1f2937" text-anchor="middle" font-weight="600" font-family="sans-serif">MC</text>
<rect x="200" y="40" width="80" height="28" stroke="#1f2937" fill="#dbeafe" fill-opacity="1.0" rx="0"/>
<text x="240.0" y="59.0" font-size="11" fill="#1f2937" text-anchor="middle" font-weight="600" font-family="sans-serif">f</text>
<rect x="40" y="68" width="80" height="28" stroke="#1f2937" fill="none" fill-opacity="0.5" rx="0"/>
<text x="80.0" y="87.0" font-size="11" fill="#1f2937" text-anchor="middle" font-weight="normal" font-family="sans-serif">[0-10)</text>
<rect x="120" y="68" width="80" height="28" stroke="#1f2937" fill="none" fill-opacity="0.5" rx="0"/>
<text x="160.0" y="87.0" font-size="11" fill="#1f2937" text-anchor="middle" font-weight="normal" font-family="sans-serif">5</text>
<rect x="200" y="68" width="80" height="28" stroke="#1f2937" fill="none" fill-opacity="0.5" rx="0"/>
<text x="240.0" y="87.0" font-size="11" fill="#1f2937" text-anchor="middle" font-weight="normal" font-family="sans-serif">4</text>
<rect x="40" y="96" width="80" height="28" stroke="#1f2937" fill="none" fill-opacity="0.5" rx="0"/>
<text x="80.0" y="115.0" font-size="11" fill="#1f2937" text-anchor="middle" font-weight="normal" font-family="sans-serif">[10-20)</text>
<rect x="120" y="96" width="80" height="28" stroke="#1f2937" fill="none" fill-opacity="0.5" rx="0"/>
<text x="160.0" y="115.0" font-size="11" fill="#1f2937" text-anchor="middle" font-weight="normal" font-family="sans-serif">15</text>
<rect x="200" y="96" width="80" height="28" stroke="#1f2937" fill="none" fill-opacity="0.5" rx="0"/>
<text x="240.0" y="115.0" font-size="11" fill="#1f2937" text-anchor="middle" font-weight="normal" font-family="sans-serif">7</text>
<rect x="40" y="124" width="80" height="28" stroke="#1f2937" fill="none" fill-opacity="0.5" rx="0"/>
<text x="80.0" y="143.0" font-size="11" fill="#1f2937" text-anchor="middle" font-weight="normal" font-family="sans-serif">[20-30)</text>
<rect x="120" y="124" width="80" height="28" stroke="#1f2937" fill="none" fill-opacity="0.5" rx="0"/>
<text x="160.0" y="143.0" font-size="11" fill="#1f2937" text-anchor="middle" font-weight="normal" font-family="sans-serif">25</text>
<rect x="200" y="124" width="80" height="28" stroke="#1f2937" fill="none" fill-opacity="0.5" rx="0"/>
<text x="240.0" y="143.0" font-size="11" fill="#1f2937" text-anchor="middle" font-weight="normal" font-family="sans-serif">3</text>
</svg>
