<svg viewBox="0 0 320 260" xmlns="http://www.w3.org/2000/svg" role="img" aria-label="Área de un triángulo en el plano cartesiano"><rect width="320" height="260" fill="#ffffff"/><line x1="0" y1="0" x2="0" y2="260" stroke="#e5e7eb" stroke-width="1"/><line x1="32" y1="0" x2="32" y2="260" stroke="#e5e7eb" stroke-width="1"/><line x1="64" y1="0" x2="64" y2="260" stroke="#e5e7eb" stroke-width="1"/><line x1="96" y1="0" x2="96" y2="260" stroke="#e5e7eb" stroke-width="1"/><line x1="128" y1="0" x2="128" y2="260" stroke="#e5e7eb" stroke-width="1"/><line x1="160" y1="0" x2="160" y2="260" stroke="#e5e7eb" stroke-width="1"/><line x1="192" y1="0" x2="192" y2="260" stroke="#e5e7eb" stroke-width="1"/><line x1="224" y1="0" x2="224" y2="260" stroke="#e5e7eb" stroke-width="1"/><line x1="256" y1="0" x2="256" y2="260" stroke="#e5e7eb" stroke-width="1"/><line x1="288" y1="0" x2="288" y2="260" stroke="#e5e7eb" stroke-width="1"/><line x1="320" y1="0" x2="320" y2="260" stroke="#e5e7eb" stroke-width="1"/><line x1="0" y1="0" x2="320" y2="0" stroke="#e5e7eb" stroke-width="1"/><line x1="0" y1="26" x2="320" y2="26" stroke="#e5e7eb" stroke-width="1"/><line x1="0" y1="52" x2="320" y2="52" stroke="#e5e7eb" stroke-width="1"/><line x1="0" y1="78" x2="320" y2="78" stroke="#e5e7eb" stroke-width="1"/><line x1="0" y1="104" x2="320" y2="104" stroke="#e5e7eb" stroke-width="1"/><line x1="0" y1="130" x2="320" y2="130" stroke="#e5e7eb" stroke-width="1"/><line x1="0" y1="156" x2="320" y2="156" stroke="#e5e7eb" stroke-width="1"/><line x1="0" y1="182" x2="320" y2="182" stroke="#e5e7eb" stroke-width="1"/><line x1="0" y1="208" x2="320" y2="208" stroke="#e5e7eb" stroke-width="1"/><line x1="0" y1="234" x2="320" y2="234" stroke="#e5e7eb" stroke-width="1"/><line x1="0" y1="260" x2="320" y2="260" stroke="#e5e7eb" stroke-width="1"/><line x1="40.00" y1="220.00" x2="270.00" y2="190.00" stroke="#1f2937" stroke-width="2"/><line x1="270.00" y1="190.00" x2="150.00" y2="40.00" stroke="#1f2937" stroke-width="2"/><line x1="150.00" y1="40.00" x2="40.00" y2="220.00" stroke="#1f2937" stroke-width="2"/><circle cx="40.00" cy="220.00" r="3" fill="#2563eb"/><text x="40.00" y="208.00" font-size="12" fill="#1f2937" text-anchor="middle" font-family="Outfit, sans-serif" font-weight="normal">A(1,1)</text><circle cx="270.00" cy="190.00" r="3" fill="#2563eb"/><text x="270.00" y="178.00" font-size="12" fill="#1f2937" text-anchor="middle" font-family="Outfit, sans-serif" font-weight="normal">B(8,2)</text><circle cx="150.00" cy="40.00" r="3" fill="#2563eb"/><text x="150.00" y="60.00" font-size="12" fill="#1f2937" text-anchor="middle" font-family="Outfit, sans-serif" font-weight="normal">C(4,7)</text></svg>
