<svg viewBox="0 0 380 260" xmlns="http://www.w3.org/2000/svg" role="img" aria-label="Selección del criterio de congruencia adecuado"><rect width="380" height="260" fill="#ffffff"/><line x1="50.00" y1="220.00" x2="150.00" y2="220.00" stroke="#1f2937" stroke-width="2"/><line x1="150.00" y1="220.00" x2="95.00" y2="100.00" stroke="#1f2937" stroke-width="2"/><line x1="95.00" y1="100.00" x2="50.00" y2="220.00" stroke="#1f2937" stroke-width="2"/><circle cx="50.00" cy="220.00" r="3" fill="#1f2937"/><text x="50.00" y="238.00" font-size="14" fill="#111827" text-anchor="middle" font-family="Outfit, sans-serif" font-weight="600">A</text><circle cx="150.00" cy="220.00" r="3" fill="#1f2937"/><text x="150.00" y="238.00" font-size="14" fill="#111827" text-anchor="middle" font-family="Outfit, sans-serif" font-weight="600">B</text><circle cx="95.00" cy="100.00" r="3" fill="#1f2937"/><text x="95.00" y="90.00" font-size="14" fill="#111827" text-anchor="middle" font-family="Outfit, sans-serif" font-weight="600">C</text><line x1="100.00" y1="227.00" x2="100.00" y2="213.00" stroke="#2563eb" stroke-width="2"/><line x1="67.00" y1="154.73" x2="80.11" y2="159.65" stroke="#2563eb" stroke-width="2"/><line x1="64.89" y1="160.35" x2="78.00" y2="165.27" stroke="#2563eb" stroke-width="2"/><path d="M 57.02 201.27 A 20 20 0 0 1 70.00 220.00" fill="none" stroke="#dc2626" stroke-width="2"/><line x1="230.00" y1="220.00" x2="330.00" y2="220.00" stroke="#1f2937" stroke-width="2"/><line x1="330.00" y1="220.00" x2="275.00" y2="100.00" stroke="#1f2937" stroke-width="2"/><line x1="275.00" y1="100.00" x2="230.00" y2="220.00" stroke="#1f2937" stroke-width="2"/><circle cx="230.00" cy="220.00" r="3" fill="#1f2937"/><text x="230.00" y="238.00" font-size="14" fill="#111827" text-anchor="middle" font-family="Outfit, sans-serif" font-weight="600">A'</text><circle cx="330.00" cy="220.00" r="3" fill="#1f2937"/><text x="330.00" y="238.00" font-size="14" fill="#111827" text-anchor="middle" font-family="Outfit, sans-serif" font-weight="600">B'</text><circle cx="275.00" cy="100.00" r="3" fill="#1f2937"/><text x="275.00" y="90.00" font-size="14" fill="#111827" text-anchor="middle" font-family="Outfit, sans-serif" font-weight="600">C'</text><line x1="280.00" y1="227.00" x2="280.00" y2="213.00" stroke="#2563eb" stroke-width="2"/><line x1="247.00" y1="154.73" x2="260.11" y2="159.65" stroke="#2563eb" stroke-width="2"/><line x1="244.89" y1="160.35" x2="258.00" y2="165.27" stroke="#2563eb" stroke-width="2"/><path d="M 237.02 201.27 A 20 20 0 0 1 250.00 220.00" fill="none" stroke="#dc2626" stroke-width="2"/></svg>
