<svg viewBox="0 0 380 260" xmlns="http://www.w3.org/2000/svg" role="img" aria-label="Criterio de congruencia LLL"><rect width="380" height="260" fill="#ffffff"/><line x1="50.00" y1="220.00" x2="150.00" y2="220.00" stroke="#1f2937" stroke-width="2"/><line x1="150.00" y1="220.00" x2="95.00" y2="100.00" stroke="#1f2937" stroke-width="2"/><line x1="95.00" y1="100.00" x2="50.00" y2="220.00" stroke="#1f2937" stroke-width="2"/><circle cx="50.00" cy="220.00" r="3" fill="#1f2937"/><text x="50.00" y="238.00" font-size="14" fill="#111827" text-anchor="middle" font-family="Outfit, sans-serif" font-weight="600">A</text><circle cx="150.00" cy="220.00" r="3" fill="#1f2937"/><text x="150.00" y="238.00" font-size="14" fill="#111827" text-anchor="middle" font-family="Outfit, sans-serif" font-weight="600">B</text><circle cx="95.00" cy="100.00" r="3" fill="#1f2937"/><text x="95.00" y="90.00" font-size="14" fill="#111827" text-anchor="middle" font-family="Outfit, sans-serif" font-weight="600">C</text><line x1="100.00" y1="227.00" x2="100.00" y2="213.00" stroke="#2563eb" stroke-width="2"/><line x1="130.11" y1="159.81" x2="117.39" y2="165.64" stroke="#2563eb" stroke-width="2"/><line x1="127.61" y1="154.36" x2="114.89" y2="160.19" stroke="#2563eb" stroke-width="2"/><line x1="68.05" y1="151.92" x2="81.16" y2="156.84" stroke="#2563eb" stroke-width="2"/><line x1="65.95" y1="157.54" x2="79.05" y2="162.46" stroke="#2563eb" stroke-width="2"/><line x1="63.84" y1="163.16" x2="76.95" y2="168.08" stroke="#2563eb" stroke-width="2"/><line x1="230.00" y1="220.00" x2="330.00" y2="220.00" stroke="#1f2937" stroke-width="2"/><line x1="330.00" y1="220.00" x2="275.00" y2="100.00" stroke="#1f2937" stroke-width="2"/><line x1="275.00" y1="100.00" x2="230.00" y2="220.00" stroke="#1f2937" stroke-width="2"/><circle cx="230.00" cy="220.00" r="3" fill="#1f2937"/><text x="230.00" y="238.00" font-size="14" fill="#111827" text-anchor="middle" font-family="Outfit, sans-serif" font-weight="600">A'</text><circle cx="330.00" cy="220.00" r="3" fill="#1f2937"/><text x="330.00" y="238.00" font-size="14" fill="#111827" text-anchor="middle" font-family="Outfit, sans-serif" font-weight="600">B'</text><circle cx="275.00" cy="100.00" r="3" fill="#1f2937"/><text x="275.00" y="90.00" font-size="14" fill="#111827" text-anchor="middle" font-family="Outfit, sans-serif" font-weight="600">C'</text><line x1="280.00" y1="227.00" x2="280.00" y2="213.00" stroke="#2563eb" stroke-width="2"/><line x1="310.11" y1="159.81" x2="297.39" y2="165.64" stroke="#2563eb" stroke-width="2"/><line x1="307.61" y1="154.36" x2="294.89" y2="160.19" stroke="#2563eb" stroke-width="2"/><line x1="248.05" y1="151.92" x2="261.16" y2="156.84" stroke="#2563eb" stroke-width="2"/><line x1="245.95" y1="157.54" x2="259.05" y2="162.46" stroke="#2563eb" stroke-width="2"/><line x1="243.84" y1="163.16" x2="256.95" y2="168.08" stroke="#2563eb" stroke-width="2"/></svg>
