<svg viewBox="0 0 380 260" xmlns="http://www.w3.org/2000/svg" role="img" aria-label="Criterio de congruencia LLA mayor"><rect width="380" height="260" fill="#ffffff"/><line x1="50.00" y1="220.00" x2="150.00" y2="220.00" stroke="#1f2937" stroke-width="2"/><line x1="150.00" y1="220.00" x2="95.00" y2="100.00" stroke="#1f2937" stroke-width="2"/><line x1="95.00" y1="100.00" x2="50.00" y2="220.00" stroke="#1f2937" stroke-width="2"/><circle cx="50.00" cy="220.00" r="3" fill="#1f2937"/><text x="50.00" y="238.00" font-size="14" fill="#111827" text-anchor="middle" font-family="Outfit, sans-serif" font-weight="600">A</text><circle cx="150.00" cy="220.00" r="3" fill="#1f2937"/><text x="150.00" y="238.00" font-size="14" fill="#111827" text-anchor="middle" font-family="Outfit, sans-serif" font-weight="600">B</text><circle cx="95.00" cy="100.00" r="3" fill="#1f2937"/><text x="95.00" y="90.00" font-size="14" fill="#111827" text-anchor="middle" font-family="Outfit, sans-serif" font-weight="600">C</text><line x1="97.00" y1="227.00" x2="97.00" y2="213.00" stroke="#2563eb" stroke-width="2"/><line x1="103.00" y1="227.00" x2="103.00" y2="213.00" stroke="#2563eb" stroke-width="2"/><line x1="131.36" y1="162.54" x2="118.64" y2="168.37" stroke="#2563eb" stroke-width="2"/><line x1="128.86" y1="157.08" x2="116.14" y2="162.92" stroke="#2563eb" stroke-width="2"/><line x1="126.36" y1="151.63" x2="113.64" y2="157.46" stroke="#2563eb" stroke-width="2"/><path d="M 130.00 220.00 A 20 20 0 0 1 141.67 201.82" fill="none" stroke="#dc2626" stroke-width="2"/><line x1="230.00" y1="220.00" x2="330.00" y2="220.00" stroke="#1f2937" stroke-width="2"/><line x1="330.00" y1="220.00" x2="275.00" y2="100.00" stroke="#1f2937" stroke-width="2"/><line x1="275.00" y1="100.00" x2="230.00" y2="220.00" stroke="#1f2937" stroke-width="2"/><circle cx="230.00" cy="220.00" r="3" fill="#1f2937"/><text x="230.00" y="238.00" font-size="14" fill="#111827" text-anchor="middle" font-family="Outfit, sans-serif" font-weight="600">A'</text><circle cx="330.00" cy="220.00" r="3" fill="#1f2937"/><text x="330.00" y="238.00" font-size="14" fill="#111827" text-anchor="middle" font-family="Outfit, sans-serif" font-weight="600">B'</text><circle cx="275.00" cy="100.00" r="3" fill="#1f2937"/><text x="275.00" y="90.00" font-size="14" fill="#111827" text-anchor="middle" font-family="Outfit, sans-serif" font-weight="600">C'</text><line x1="277.00" y1="227.00" x2="277.00" y2="213.00" stroke="#2563eb" stroke-width="2"/><line x1="283.00" y1="227.00" x2="283.00" y2="213.00" stroke="#2563eb" stroke-width="2"/><line x1="311.36" y1="162.54" x2="298.64" y2="168.37" stroke="#2563eb" stroke-width="2"/><line x1="308.86" y1="157.08" x2="296.14" y2="162.92" stroke="#2563eb" stroke-width="2"/><line x1="306.36" y1="151.63" x2="293.64" y2="157.46" stroke="#2563eb" stroke-width="2"/><path d="M 310.00 220.00 A 20 20 0 0 1 321.67 201.82" fill="none" stroke="#dc2626" stroke-width="2"/></svg>
