<svg viewBox="0 0 320 260" xmlns="http://www.w3.org/2000/svg" role="img" aria-label="Homotecia de reducción"><rect width="320" height="260" fill="#ffffff"/><line x1="120.00" y1="140.00" x2="150.00" y2="120.00" stroke="#cbd5e1" stroke-width="2" stroke-dasharray="3,3"/><line x1="120.00" y1="140.00" x2="180.00" y2="160.00" stroke="#cbd5e1" stroke-width="2" stroke-dasharray="3,3"/><line x1="120.00" y1="140.00" x2="130.00" y2="170.00" stroke="#cbd5e1" stroke-width="2" stroke-dasharray="3,3"/><line x1="150.00" y1="120.00" x2="180.00" y2="160.00" stroke="#1f2937" stroke-width="2"/><line x1="180.00" y1="160.00" x2="130.00" y2="170.00" stroke="#1f2937" stroke-width="2"/><line x1="130.00" y1="170.00" x2="150.00" y2="120.00" stroke="#1f2937" stroke-width="2"/><line x1="135.00" y1="130.00" x2="150.00" y2="150.00" stroke="#dc2626" stroke-width="2"/><line x1="150.00" y1="150.00" x2="125.00" y2="155.00" stroke="#dc2626" stroke-width="2"/><line x1="125.00" y1="155.00" x2="135.00" y2="130.00" stroke="#dc2626" stroke-width="2"/><circle cx="120.00" cy="140.00" r="3" fill="#1f2937"/><text x="108.00" y="144.00" font-size="14" fill="#111827" text-anchor="middle" font-family="Outfit, sans-serif" font-weight="600">O</text><circle cx="150.00" cy="120.00" r="3" fill="#1f2937"/><text x="150.00" y="112.00" font-size="13" fill="#111827" text-anchor="middle" font-family="Outfit, sans-serif" font-weight="600">A</text><circle cx="180.00" cy="160.00" r="3" fill="#1f2937"/><text x="180.00" y="152.00" font-size="13" fill="#111827" text-anchor="middle" font-family="Outfit, sans-serif" font-weight="600">B</text><circle cx="130.00" cy="170.00" r="3" fill="#1f2937"/><text x="130.00" y="162.00" font-size="13" fill="#111827" text-anchor="middle" font-family="Outfit, sans-serif" font-weight="600">C</text><circle cx="135.00" cy="130.00" r="3" fill="#dc2626"/><text x="135.00" y="122.00" font-size="13" fill="#dc2626" text-anchor="middle" font-family="Outfit, sans-serif" font-weight="600">A'</text><circle cx="150.00" cy="150.00" r="3" fill="#dc2626"/><text x="150.00" y="142.00" font-size="13" fill="#dc2626" text-anchor="middle" font-family="Outfit, sans-serif" font-weight="600">B'</text><circle cx="125.00" cy="155.00" r="3" fill="#dc2626"/><text x="125.00" y="147.00" font-size="13" fill="#dc2626" text-anchor="middle" font-family="Outfit, sans-serif" font-weight="600">C'</text><text x="20.00" y="245.00" font-size="12" fill="#1f2937" text-anchor="start" font-family="Outfit, sans-serif" font-weight="normal">0 < |k| < 1: la figura se reduce</text></svg>
