<svg viewBox="0 0 320 260" xmlns="http://www.w3.org/2000/svg" role="img" aria-label="Identificación del centro de homotecia"><rect width="320" height="260" fill="#ffffff"/><line x1="120.00" y1="140.00" x2="182.10" y2="98.60" stroke="#cbd5e1" stroke-width="2" stroke-dasharray="3,3"/><line x1="120.00" y1="140.00" x2="244.20" y2="181.40" stroke="#cbd5e1" stroke-width="2" stroke-dasharray="3,3"/><line x1="120.00" y1="140.00" x2="140.70" y2="202.10" stroke="#cbd5e1" stroke-width="2" stroke-dasharray="3,3"/><line x1="150.00" y1="120.00" x2="180.00" y2="160.00" stroke="#1f2937" stroke-width="2"/><line x1="180.00" y1="160.00" x2="130.00" y2="170.00" stroke="#1f2937" stroke-width="2"/><line x1="130.00" y1="170.00" x2="150.00" y2="120.00" stroke="#1f2937" stroke-width="2"/><line x1="174.00" y1="104.00" x2="228.00" y2="176.00" stroke="#dc2626" stroke-width="2"/><line x1="228.00" y1="176.00" x2="138.00" y2="194.00" stroke="#dc2626" stroke-width="2"/><line x1="138.00" y1="194.00" x2="174.00" y2="104.00" stroke="#dc2626" stroke-width="2"/><circle cx="120.00" cy="140.00" r="3" fill="#1f2937"/><text x="108.00" y="144.00" font-size="14" fill="#111827" text-anchor="middle" font-family="Outfit, sans-serif" font-weight="600">O</text><circle cx="150.00" cy="120.00" r="3" fill="#1f2937"/><text x="150.00" y="112.00" font-size="13" fill="#111827" text-anchor="middle" font-family="Outfit, sans-serif" font-weight="600">A</text><circle cx="180.00" cy="160.00" r="3" fill="#1f2937"/><text x="180.00" y="152.00" font-size="13" fill="#111827" text-anchor="middle" font-family="Outfit, sans-serif" font-weight="600">B</text><circle cx="130.00" cy="170.00" r="3" fill="#1f2937"/><text x="130.00" y="162.00" font-size="13" fill="#111827" text-anchor="middle" font-family="Outfit, sans-serif" font-weight="600">C</text><circle cx="174.00" cy="104.00" r="3" fill="#dc2626"/><text x="174.00" y="96.00" font-size="13" fill="#dc2626" text-anchor="middle" font-family="Outfit, sans-serif" font-weight="600">A'</text><circle cx="228.00" cy="176.00" r="3" fill="#dc2626"/><text x="228.00" y="168.00" font-size="13" fill="#dc2626" text-anchor="middle" font-family="Outfit, sans-serif" font-weight="600">B'</text><circle cx="138.00" cy="194.00" r="3" fill="#dc2626"/><text x="138.00" y="186.00" font-size="13" fill="#dc2626" text-anchor="middle" font-family="Outfit, sans-serif" font-weight="600">C'</text><text x="20.00" y="245.00" font-size="12" fill="#1f2937" text-anchor="start" font-family="Outfit, sans-serif" font-weight="normal">Centro O: punto fijo de la transformación</text></svg>
