<svg viewBox="0 0 320 260" xmlns="http://www.w3.org/2000/svg" role="img" aria-label="Homotecia inversa (razón negativa)"><rect width="320" height="260" fill="#ffffff"/><line x1="120.00" y1="140.00" x2="75.15" y2="169.90" stroke="#cbd5e1" stroke-width="2" stroke-dasharray="3,3"/><line x1="120.00" y1="140.00" x2="30.30" y2="110.10" stroke="#cbd5e1" stroke-width="2" stroke-dasharray="3,3"/><line x1="120.00" y1="140.00" x2="105.05" y2="95.15" stroke="#cbd5e1" stroke-width="2" stroke-dasharray="3,3"/><line x1="150.00" y1="120.00" x2="180.00" y2="160.00" stroke="#1f2937" stroke-width="2"/><line x1="180.00" y1="160.00" x2="130.00" y2="170.00" stroke="#1f2937" stroke-width="2"/><line x1="130.00" y1="170.00" x2="150.00" y2="120.00" stroke="#1f2937" stroke-width="2"/><line x1="81.00" y1="166.00" x2="42.00" y2="114.00" stroke="#dc2626" stroke-width="2"/><line x1="42.00" y1="114.00" x2="107.00" y2="101.00" stroke="#dc2626" stroke-width="2"/><line x1="107.00" y1="101.00" x2="81.00" y2="166.00" stroke="#dc2626" stroke-width="2"/><circle cx="120.00" cy="140.00" r="3" fill="#1f2937"/><text x="108.00" y="144.00" font-size="14" fill="#111827" text-anchor="middle" font-family="Outfit, sans-serif" font-weight="600">O</text><circle cx="150.00" cy="120.00" r="3" fill="#1f2937"/><text x="150.00" y="112.00" font-size="13" fill="#111827" text-anchor="middle" font-family="Outfit, sans-serif" font-weight="600">A</text><circle cx="180.00" cy="160.00" r="3" fill="#1f2937"/><text x="180.00" y="152.00" font-size="13" fill="#111827" text-anchor="middle" font-family="Outfit, sans-serif" font-weight="600">B</text><circle cx="130.00" cy="170.00" r="3" fill="#1f2937"/><text x="130.00" y="162.00" font-size="13" fill="#111827" text-anchor="middle" font-family="Outfit, sans-serif" font-weight="600">C</text><circle cx="81.00" cy="166.00" r="3" fill="#dc2626"/><text x="81.00" y="158.00" font-size="13" fill="#dc2626" text-anchor="middle" font-family="Outfit, sans-serif" font-weight="600">A'</text><circle cx="42.00" cy="114.00" r="3" fill="#dc2626"/><text x="42.00" y="106.00" font-size="13" fill="#dc2626" text-anchor="middle" font-family="Outfit, sans-serif" font-weight="600">B'</text><circle cx="107.00" cy="101.00" r="3" fill="#dc2626"/><text x="107.00" y="93.00" font-size="13" fill="#dc2626" text-anchor="middle" font-family="Outfit, sans-serif" font-weight="600">C'</text><text x="20.00" y="245.00" font-size="12" fill="#1f2937" text-anchor="start" font-family="Outfit, sans-serif" font-weight="normal">k = -1,3 < 0 (homotecia inversa)</text></svg>
