<svg viewBox="0 0 320 260" xmlns="http://www.w3.org/2000/svg" role="img" aria-label="Fórmula vectorial de homotecia"><rect width="320" height="260" fill="#ffffff"/><line x1="0" y1="0" x2="0" y2="260" stroke="#e5e7eb" stroke-width="1"/><line x1="32" y1="0" x2="32" y2="260" stroke="#e5e7eb" stroke-width="1"/><line x1="64" y1="0" x2="64" y2="260" stroke="#e5e7eb" stroke-width="1"/><line x1="96" y1="0" x2="96" y2="260" stroke="#e5e7eb" stroke-width="1"/><line x1="128" y1="0" x2="128" y2="260" stroke="#e5e7eb" stroke-width="1"/><line x1="160" y1="0" x2="160" y2="260" stroke="#e5e7eb" stroke-width="1"/><line x1="192" y1="0" x2="192" y2="260" stroke="#e5e7eb" stroke-width="1"/><line x1="224" y1="0" x2="224" y2="260" stroke="#e5e7eb" stroke-width="1"/><line x1="256" y1="0" x2="256" y2="260" stroke="#e5e7eb" stroke-width="1"/><line x1="288" y1="0" x2="288" y2="260" stroke="#e5e7eb" stroke-width="1"/><line x1="320" y1="0" x2="320" y2="260" stroke="#e5e7eb" stroke-width="1"/><line x1="0" y1="0" x2="320" y2="0" stroke="#e5e7eb" stroke-width="1"/><line x1="0" y1="26" x2="320" y2="26" stroke="#e5e7eb" stroke-width="1"/><line x1="0" y1="52" x2="320" y2="52" stroke="#e5e7eb" stroke-width="1"/><line x1="0" y1="78" x2="320" y2="78" stroke="#e5e7eb" stroke-width="1"/><line x1="0" y1="104" x2="320" y2="104" stroke="#e5e7eb" stroke-width="1"/><line x1="0" y1="130" x2="320" y2="130" stroke="#e5e7eb" stroke-width="1"/><line x1="0" y1="156" x2="320" y2="156" stroke="#e5e7eb" stroke-width="1"/><line x1="0" y1="182" x2="320" y2="182" stroke="#e5e7eb" stroke-width="1"/><line x1="0" y1="208" x2="320" y2="208" stroke="#e5e7eb" stroke-width="1"/><line x1="0" y1="234" x2="320" y2="234" stroke="#e5e7eb" stroke-width="1"/><line x1="0" y1="260" x2="320" y2="260" stroke="#e5e7eb" stroke-width="1"/><line x1="0" y1="200" x2="320" y2="200" stroke="#94a3b8" stroke-width="1.5"/><line x1="90" y1="0" x2="90" y2="260" stroke="#94a3b8" stroke-width="1.5"/><line x1="120.00" y1="180.00" x2="150.00" y2="220.00" stroke="#1f2937" stroke-width="2"/><line x1="150.00" y1="220.00" x2="100.00" y2="230.00" stroke="#1f2937" stroke-width="2"/><line x1="100.00" y1="230.00" x2="120.00" y2="180.00" stroke="#1f2937" stroke-width="2"/><line x1="144.00" y1="164.00" x2="198.00" y2="236.00" stroke="#dc2626" stroke-width="2"/><line x1="198.00" y1="236.00" x2="108.00" y2="254.00" stroke="#dc2626" stroke-width="2"/><line x1="108.00" y1="254.00" x2="144.00" y2="164.00" stroke="#dc2626" stroke-width="2"/><circle cx="90.00" cy="200.00" r="3" fill="#1f2937"/><text x="78.00" y="214.00" font-size="13" fill="#111827" text-anchor="middle" font-family="Outfit, sans-serif" font-weight="600">O</text><circle cx="120.00" cy="180.00" r="3" fill="#1f2937"/><text x="120.00" y="172.00" font-size="12" fill="#111827" text-anchor="middle" font-family="Outfit, sans-serif" font-weight="600">P</text><circle cx="144.00" cy="164.00" r="3" fill="#dc2626"/><text x="144.00" y="156.00" font-size="12" fill="#dc2626" text-anchor="middle" font-family="Outfit, sans-serif" font-weight="600">P'</text></svg>
