<svg viewBox="0 0 380 260" xmlns="http://www.w3.org/2000/svg" role="img" aria-label="Modelos a escala"><rect width="380" height="260" fill="#ffffff"/><line x1="60.00" y1="220.00" x2="130.00" y2="220.00" stroke="#1f2937" stroke-width="2"/><line x1="130.00" y1="220.00" x2="85.00" y2="110.00" stroke="#1f2937" stroke-width="2"/><line x1="85.00" y1="110.00" x2="60.00" y2="220.00" stroke="#1f2937" stroke-width="2"/><circle cx="60.00" cy="220.00" r="3" fill="#1f2937"/><text x="60.00" y="238.00" font-size="13" fill="#111827" text-anchor="middle" font-family="Outfit, sans-serif" font-weight="600">modelo</text><line x1="95.00" y1="227.00" x2="95.00" y2="213.00" stroke="#2563eb" stroke-width="2"/><line x1="113.98" y1="162.35" x2="101.02" y2="167.65" stroke="#2563eb" stroke-width="2"/><line x1="65.67" y1="163.45" x2="79.33" y2="166.55" stroke="#2563eb" stroke-width="2"/><line x1="190.00" y1="220.00" x2="309.00" y2="220.00" stroke="#1f2937" stroke-width="2"/><line x1="309.00" y1="220.00" x2="232.50" y2="33.00" stroke="#1f2937" stroke-width="2"/><line x1="232.50" y1="33.00" x2="190.00" y2="220.00" stroke="#1f2937" stroke-width="2"/><circle cx="190.00" cy="220.00" r="3" fill="#1f2937"/><text x="190.00" y="238.00" font-size="13" fill="#111827" text-anchor="middle" font-family="Outfit, sans-serif" font-weight="600">real</text><line x1="243.50" y1="227.00" x2="243.50" y2="213.00" stroke="#dc2626" stroke-width="2"/><line x1="249.50" y1="227.00" x2="249.50" y2="213.00" stroke="#dc2626" stroke-width="2"/><line x1="255.50" y1="227.00" x2="255.50" y2="213.00" stroke="#dc2626" stroke-width="2"/><line x1="279.50" y1="129.40" x2="266.54" y2="134.70" stroke="#dc2626" stroke-width="2"/><line x1="277.23" y1="123.85" x2="264.27" y2="129.15" stroke="#dc2626" stroke-width="2"/><line x1="274.96" y1="118.30" x2="262.00" y2="123.60" stroke="#dc2626" stroke-width="2"/><line x1="205.75" y1="119.10" x2="219.41" y2="122.20" stroke="#dc2626" stroke-width="2"/><line x1="204.42" y1="124.95" x2="218.08" y2="128.05" stroke="#dc2626" stroke-width="2"/><line x1="203.09" y1="130.80" x2="216.75" y2="133.90" stroke="#dc2626" stroke-width="2"/></svg>
