<svg viewBox="0 0 380 260" xmlns="http://www.w3.org/2000/svg" role="img" aria-label="Ángulos congruentes en polígonos semejantes"><rect width="380" height="260" fill="#ffffff"/><line x1="90.00" y1="95.00" x2="142.31" y2="133.00" stroke="#2563eb" stroke-width="2"/><line x1="142.31" y1="133.00" x2="122.33" y2="194.50" stroke="#2563eb" stroke-width="2"/><line x1="122.33" y1="194.50" x2="57.67" y2="194.50" stroke="#2563eb" stroke-width="2"/><line x1="57.67" y1="194.50" x2="37.69" y2="133.00" stroke="#2563eb" stroke-width="2"/><line x1="37.69" y1="133.00" x2="90.00" y2="95.00" stroke="#2563eb" stroke-width="2"/><path d="M 101.33 103.23 A 14 14 0 0 1 78.67 103.23" fill="none" stroke="#1f2937" stroke-width="2"/><path d="M 137.98 146.32 A 14 14 0 0 1 130.98 124.78" fill="none" stroke="#1f2937" stroke-width="2"/><path d="M 108.33 194.50 A 14 14 0 0 1 126.65 181.18" fill="none" stroke="#1f2937" stroke-width="2"/><path d="M 53.35 181.18 A 14 14 0 0 1 71.67 194.50" fill="none" stroke="#1f2937" stroke-width="2"/><path d="M 49.02 124.78 A 14 14 0 0 1 42.02 146.32" fill="none" stroke="#1f2937" stroke-width="2"/><line x1="270.00" y1="65.00" x2="350.84" y2="123.73" stroke="#dc2626" stroke-width="2"/><line x1="350.84" y1="123.73" x2="319.96" y2="218.77" stroke="#dc2626" stroke-width="2"/><line x1="319.96" y1="218.77" x2="220.04" y2="218.77" stroke="#dc2626" stroke-width="2"/><line x1="220.04" y1="218.77" x2="189.16" y2="123.73" stroke="#dc2626" stroke-width="2"/><line x1="189.16" y1="123.73" x2="270.00" y2="65.00" stroke="#dc2626" stroke-width="2"/><path d="M 281.33 73.23 A 14 14 0 0 1 258.67 73.23" fill="none" stroke="#1f2937" stroke-width="2"/><path d="M 346.51 137.05 A 14 14 0 0 1 339.51 115.50" fill="none" stroke="#1f2937" stroke-width="2"/><path d="M 305.96 218.77 A 14 14 0 0 1 324.29 205.45" fill="none" stroke="#1f2937" stroke-width="2"/><path d="M 215.71 205.45 A 14 14 0 0 1 234.04 218.77" fill="none" stroke="#1f2937" stroke-width="2"/><path d="M 200.49 115.50 A 14 14 0 0 1 193.49 137.05" fill="none" stroke="#1f2937" stroke-width="2"/></svg>
