<svg viewBox="0 0 380 260" xmlns="http://www.w3.org/2000/svg" role="img" aria-label="Lados proporcionales en polígonos semejantes"><rect width="380" height="260" fill="#ffffff"/><line x1="90.00" y1="95.00" x2="142.31" y2="133.00" stroke="#2563eb" stroke-width="2"/><line x1="112.04" y1="119.67" x2="120.27" y2="108.34" stroke="#2563eb" stroke-width="2"/><line x1="142.31" y1="133.00" x2="122.33" y2="194.50" stroke="#2563eb" stroke-width="2"/><line x1="125.66" y1="161.59" x2="138.98" y2="165.91" stroke="#2563eb" stroke-width="2"/><line x1="122.33" y1="194.50" x2="57.67" y2="194.50" stroke="#2563eb" stroke-width="2"/><line x1="90.00" y1="187.50" x2="90.00" y2="201.50" stroke="#2563eb" stroke-width="2"/><line x1="57.67" y1="194.50" x2="37.69" y2="133.00" stroke="#2563eb" stroke-width="2"/><line x1="54.34" y1="161.59" x2="41.02" y2="165.91" stroke="#2563eb" stroke-width="2"/><line x1="37.69" y1="133.00" x2="90.00" y2="95.00" stroke="#2563eb" stroke-width="2"/><line x1="67.96" y1="119.67" x2="59.73" y2="108.34" stroke="#2563eb" stroke-width="2"/><line x1="270.00" y1="65.00" x2="350.84" y2="123.73" stroke="#dc2626" stroke-width="2"/><line x1="303.88" y1="98.27" x2="312.11" y2="86.94" stroke="#dc2626" stroke-width="2"/><line x1="308.73" y1="101.79" x2="316.96" y2="90.47" stroke="#dc2626" stroke-width="2"/><line x1="350.84" y1="123.73" x2="319.96" y2="218.77" stroke="#dc2626" stroke-width="2"/><line x1="329.67" y1="166.23" x2="342.99" y2="170.56" stroke="#dc2626" stroke-width="2"/><line x1="327.82" y1="171.94" x2="341.13" y2="176.27" stroke="#dc2626" stroke-width="2"/><line x1="319.96" y1="218.77" x2="220.04" y2="218.77" stroke="#dc2626" stroke-width="2"/><line x1="273.00" y1="211.77" x2="273.00" y2="225.77" stroke="#dc2626" stroke-width="2"/><line x1="267.00" y1="211.77" x2="267.00" y2="225.77" stroke="#dc2626" stroke-width="2"/><line x1="220.04" y1="218.77" x2="189.16" y2="123.73" stroke="#dc2626" stroke-width="2"/><line x1="212.18" y1="171.94" x2="198.87" y2="176.27" stroke="#dc2626" stroke-width="2"/><line x1="210.33" y1="166.23" x2="197.01" y2="170.56" stroke="#dc2626" stroke-width="2"/><line x1="189.16" y1="123.73" x2="270.00" y2="65.00" stroke="#dc2626" stroke-width="2"/><line x1="231.27" y1="101.79" x2="223.04" y2="90.47" stroke="#dc2626" stroke-width="2"/><line x1="236.12" y1="98.27" x2="227.89" y2="86.94" stroke="#dc2626" stroke-width="2"/></svg>
