<svg viewBox="0 0 380 260" xmlns="http://www.w3.org/2000/svg" role="img" aria-label="Criterio de semejanza LAL"><rect width="380" height="260" fill="#ffffff"/><line x1="60.00" y1="220.00" x2="130.00" y2="220.00" stroke="#1f2937" stroke-width="2"/><line x1="130.00" y1="220.00" x2="85.00" y2="110.00" stroke="#1f2937" stroke-width="2"/><line x1="85.00" y1="110.00" x2="60.00" y2="220.00" stroke="#1f2937" stroke-width="2"/><circle cx="60.00" cy="220.00" r="3" fill="#1f2937"/><text x="60.00" y="238.00" font-size="13" fill="#111827" text-anchor="middle" font-family="Outfit, sans-serif" font-weight="600">A</text><circle cx="130.00" cy="220.00" r="3" fill="#1f2937"/><text x="130.00" y="238.00" font-size="13" fill="#111827" text-anchor="middle" font-family="Outfit, sans-serif" font-weight="600">B</text><circle cx="85.00" cy="110.00" r="3" fill="#1f2937"/><text x="85.00" y="128.00" font-size="13" fill="#111827" text-anchor="middle" font-family="Outfit, sans-serif" font-weight="600">C</text><line x1="95.00" y1="227.00" x2="95.00" y2="213.00" stroke="#2563eb" stroke-width="2"/><line x1="66.34" y1="160.52" x2="79.99" y2="163.63" stroke="#2563eb" stroke-width="2"/><line x1="65.01" y1="166.37" x2="78.66" y2="169.48" stroke="#2563eb" stroke-width="2"/><path d="M 63.55 204.40 A 16 16 0 0 1 76.00 220.00" fill="none" stroke="#1f2937" stroke-width="2"/><line x1="190.00" y1="220.00" x2="309.00" y2="220.00" stroke="#1f2937" stroke-width="2"/><line x1="309.00" y1="220.00" x2="232.50" y2="33.00" stroke="#1f2937" stroke-width="2"/><line x1="232.50" y1="33.00" x2="190.00" y2="220.00" stroke="#1f2937" stroke-width="2"/><circle cx="190.00" cy="220.00" r="3" fill="#1f2937"/><text x="190.00" y="238.00" font-size="13" fill="#111827" text-anchor="middle" font-family="Outfit, sans-serif" font-weight="600">A'</text><circle cx="309.00" cy="220.00" r="3" fill="#1f2937"/><text x="309.00" y="238.00" font-size="13" fill="#111827" text-anchor="middle" font-family="Outfit, sans-serif" font-weight="600">B'</text><circle cx="232.50" cy="33.00" r="3" fill="#1f2937"/><text x="232.50" y="23.00" font-size="13" fill="#111827" text-anchor="middle" font-family="Outfit, sans-serif" font-weight="600">C'</text><line x1="249.50" y1="227.00" x2="249.50" y2="213.00" stroke="#dc2626" stroke-width="2"/><line x1="205.09" y1="122.02" x2="218.74" y2="125.13" stroke="#dc2626" stroke-width="2"/><line x1="203.76" y1="127.87" x2="217.41" y2="130.98" stroke="#dc2626" stroke-width="2"/><path d="M 193.55 204.40 A 16 16 0 0 1 206.00 220.00" fill="none" stroke="#1f2937" stroke-width="2"/></svg>
