<svg viewBox="0 0 380 260" xmlns="http://www.w3.org/2000/svg" role="img" aria-label="Semejanza de triángulos"><rect width="380" height="260" fill="#ffffff"/><line x1="60.00" y1="220.00" x2="130.00" y2="220.00" stroke="#1f2937" stroke-width="2"/><line x1="130.00" y1="220.00" x2="85.00" y2="110.00" stroke="#1f2937" stroke-width="2"/><line x1="85.00" y1="110.00" x2="60.00" y2="220.00" stroke="#1f2937" stroke-width="2"/><circle cx="60.00" cy="220.00" r="3" fill="#1f2937"/><text x="60.00" y="238.00" font-size="13" fill="#111827" text-anchor="middle" font-family="Outfit, sans-serif" font-weight="600">A</text><circle cx="130.00" cy="220.00" r="3" fill="#1f2937"/><text x="130.00" y="238.00" font-size="13" fill="#111827" text-anchor="middle" font-family="Outfit, sans-serif" font-weight="600">B</text><circle cx="85.00" cy="110.00" r="3" fill="#1f2937"/><text x="85.00" y="128.00" font-size="13" fill="#111827" text-anchor="middle" font-family="Outfit, sans-serif" font-weight="600">C</text><path d="M 63.55 204.40 A 16 16 0 0 1 76.00 220.00" fill="none" stroke="#1f2937" stroke-width="2"/><path d="M 114.00 220.00 A 16 16 0 0 1 123.94 205.19" fill="none" stroke="#1f2937" stroke-width="2"/><path d="M 91.06 124.81 A 16 16 0 0 1 81.45 125.60" fill="none" stroke="#1f2937" stroke-width="2"/><line x1="190.00" y1="220.00" x2="309.00" y2="220.00" stroke="#1f2937" stroke-width="2"/><line x1="309.00" y1="220.00" x2="232.50" y2="33.00" stroke="#1f2937" stroke-width="2"/><line x1="232.50" y1="33.00" x2="190.00" y2="220.00" stroke="#1f2937" stroke-width="2"/><circle cx="190.00" cy="220.00" r="3" fill="#1f2937"/><text x="190.00" y="238.00" font-size="13" fill="#111827" text-anchor="middle" font-family="Outfit, sans-serif" font-weight="600">A'</text><circle cx="309.00" cy="220.00" r="3" fill="#1f2937"/><text x="309.00" y="238.00" font-size="13" fill="#111827" text-anchor="middle" font-family="Outfit, sans-serif" font-weight="600">B'</text><circle cx="232.50" cy="33.00" r="3" fill="#1f2937"/><text x="232.50" y="23.00" font-size="13" fill="#111827" text-anchor="middle" font-family="Outfit, sans-serif" font-weight="600">C'</text><path d="M 193.55 204.40 A 16 16 0 0 1 206.00 220.00" fill="none" stroke="#1f2937" stroke-width="2"/><path d="M 293.00 220.00 A 16 16 0 0 1 302.94 205.19" fill="none" stroke="#1f2937" stroke-width="2"/><path d="M 238.56 47.81 A 16 16 0 0 1 228.95 48.60" fill="none" stroke="#1f2937" stroke-width="2"/></svg>
