<svg xmlns="http://www.w3.org/2000/svg" viewBox="0 0 1200 630" role="img" aria-labelledby="title desc">
  <title>ProfeOnline.cl</title>
  <desc>Clases particulares online y apoyo escolar en ProfeOnline</desc>

  <!-- Fondo y tarjeta -->
  <rect width="1200" height="630" fill="#0f0f0f"/>
  <rect x="60" y="60" width="1080" height="510" rx="36" fill="#1a1a1a" stroke="#333333" stroke-width="2"/>

  <!-- Tile del ícono de app -->
  <rect x="108" y="150" width="220" height="220" rx="44" fill="#ffffff"/>

  <!-- Ícono de marca (laptop + PO + lápiz + destellos) -->
  <g transform="translate(95,176) scale(0.43)">
    <rect x="78" y="326" width="294" height="26" rx="13" fill="#2c3a47"/>
    <rect x="120" y="150" width="210" height="165" rx="18" fill="#ffffff" stroke="#2c3a47" stroke-width="22"/>
    <text x="212" y="234" text-anchor="middle" dominant-baseline="central"
          font-family="'Segoe UI', 'Outfit', system-ui, Arial, sans-serif"
          font-weight="800" font-size="92" letter-spacing="-2" fill="#FFD100">PO</text>
    <rect x="392" y="92" width="24" height="24" rx="6" fill="#FFD100" transform="rotate(12 404 104)"/>
    <rect x="438" y="58" width="17" height="17" rx="4" fill="#FFD100" transform="rotate(12 446 66)"/>
    <g transform="translate(377.8,227.2) rotate(45)">
      <rect x="-24" y="-120" width="48" height="34" rx="9" fill="#2c3a47"/>
      <rect x="-24" y="-90" width="48" height="14" fill="#E9EBEE"/>
      <rect x="-24" y="-78" width="48" height="156" fill="#FFD100"/>
      <polygon points="-24,78 24,78 0,122" fill="#FFD100"/>
      <polygon points="-9,106 9,106 0,122" fill="#2c3a47"/>
    </g>
  </g>

  <!-- Texto -->
  <text x="372" y="238" font-family="'Segoe UI', Arial, Helvetica, sans-serif" font-size="80" font-weight="800" fill="#f3f4f6">ProfeOnline<tspan fill="#FFD100">.cl</tspan></text>
  <text x="374" y="300" font-family="'Segoe UI', Arial, Helvetica, sans-serif" font-size="34" fill="#9ca3af">Clases particulares online y apoyo escolar</text>
  <text x="374" y="350" font-family="'Segoe UI', Arial, Helvetica, sans-serif" font-size="28" fill="#f3f4f6">Plataforma de recursos educativos</text>

  <!-- Botón -->
  <rect x="374" y="418" width="300" height="64" rx="32" fill="#FFD100"/>
  <text x="524" y="459" text-anchor="middle" font-family="'Segoe UI', Arial, Helvetica, sans-serif" font-size="27" font-weight="700" fill="#1a1a1a">Visitar ahora</text>
</svg>
