<svg viewBox="0 0 320 260" xmlns="http://www.w3.org/2000/svg" role="img" aria-label="Identificación del centro">
<rect width="320" height="260" fill="#ffffff"/>
<defs><marker id="arrow" markerWidth="8" markerHeight="8" refX="6" refY="4" orient="auto"><polygon points="0 0, 8 4, 0 8" fill="#1f2937"/></marker><marker id="arrow-accent" markerWidth="8" markerHeight="8" refX="6" refY="4" orient="auto"><polygon points="0 0, 8 4, 0 8" fill="#2563eb"/></marker><marker id="arrow-accent2" markerWidth="8" markerHeight="8" refX="6" refY="4" orient="auto"><polygon points="0 0, 8 4, 0 8" fill="#dc2626"/></marker><marker id="arrow-accent3" markerWidth="8" markerHeight="8" refX="6" refY="4" orient="auto"><polygon points="0 0, 8 4, 0 8" fill="#7c3aed"/></marker></defs>
<line x1="24.00" y1="258.00" x2="24.00" y2="42.00" stroke="#e5e7eb" stroke-width="1"/>
<line x1="24.00" y1="258.00" x2="276.00" y2="258.00" stroke="#e5e7eb" stroke-width="1"/>
<line x1="24.00" y1="150.00" x2="276.00" y2="150.00" stroke="#1f2937" stroke-width="2" marker-end="url(#arrow)"/>
<line x1="150.00" y1="258.00" x2="150.00" y2="42.00" stroke="#1f2937" stroke-width="2" marker-end="url(#arrow)"/>
<text x="270.00" y="142.00" font-size="13" fill="#111827" text-anchor="end" font-family="Outfit, sans-serif" font-weight="normal">x</text>
<text x="162.00" y="48.00" font-size="13" fill="#111827" text-anchor="middle" font-family="Outfit, sans-serif" font-weight="normal">y</text>
<circle cx="114.00" cy="132.00" r="72.00" fill="none" stroke="#2563eb" stroke-width="2.5"/>
<circle cx="114.00" cy="132.00" r="4" fill="#dc2626"/>
<text x="122.00" y="124.00" font-size="12" fill="#dc2626" text-anchor="start" font-family="Outfit, sans-serif" font-weight="normal">(-2,1)</text>
<line x1="114.00" y1="132.00" x2="164.90" y2="81.10" stroke="#7c3aed" stroke-width="1.5" stroke-dasharray="4,3"/>
<text x="147.45" y="106.55" font-size="12" fill="#7c3aed" text-anchor="middle" font-family="Outfit, sans-serif" font-weight="normal">r=4</text>
</svg>
