<svg viewBox="0 0 320 260" xmlns="http://www.w3.org/2000/svg" role="img" aria-label="Interpretación del discriminante recta-circunferencia">
<rect width="320" height="260" fill="#ffffff"/>
<defs><marker id="arrow" markerWidth="8" markerHeight="8" refX="6" refY="4" orient="auto"><polygon points="0 0, 8 4, 0 8" fill="#1f2937"/></marker><marker id="arrow-accent" markerWidth="8" markerHeight="8" refX="6" refY="4" orient="auto"><polygon points="0 0, 8 4, 0 8" fill="#2563eb"/></marker><marker id="arrow-accent2" markerWidth="8" markerHeight="8" refX="6" refY="4" orient="auto"><polygon points="0 0, 8 4, 0 8" fill="#dc2626"/></marker><marker id="arrow-accent3" markerWidth="8" markerHeight="8" refX="6" refY="4" orient="auto"><polygon points="0 0, 8 4, 0 8" fill="#7c3aed"/></marker></defs>
<line x1="24.00" y1="258.00" x2="24.00" y2="42.00" stroke="#e5e7eb" stroke-width="1"/>
<line x1="24.00" y1="258.00" x2="276.00" y2="258.00" stroke="#e5e7eb" stroke-width="1"/>
<line x1="24.00" y1="150.00" x2="276.00" y2="150.00" stroke="#1f2937" stroke-width="2" marker-end="url(#arrow)"/>
<line x1="150.00" y1="258.00" x2="150.00" y2="42.00" stroke="#1f2937" stroke-width="2" marker-end="url(#arrow)"/>
<text x="270.00" y="142.00" font-size="13" fill="#111827" text-anchor="end" font-family="Outfit, sans-serif" font-weight="normal">x</text>
<text x="162.00" y="48.00" font-size="13" fill="#111827" text-anchor="middle" font-family="Outfit, sans-serif" font-weight="normal">y</text>
<circle cx="150.00" cy="150.00" r="72.00" fill="none" stroke="#7c3aed" stroke-width="2.5"/>
<circle cx="150.00" cy="150.00" r="3" fill="#7c3aed"/>
<line x1="29.40" y1="114.00" x2="270.60" y2="114.00" stroke="#2563eb" stroke-width="2.5"/>
<line x1="29.40" y1="78.00" x2="270.60" y2="78.00" stroke="#7c3aed" stroke-width="2.5"/>
<line x1="29.40" y1="51.00" x2="270.60" y2="51.00" stroke="#dc2626" stroke-width="2.5"/>
</svg>
