<svg viewBox="0 0 320 260" xmlns="http://www.w3.org/2000/svg" role="img" aria-label="Interceptos en la forma segmentaria">
<rect width="320" height="260" fill="#ffffff"/>
<defs><marker id="arrow" markerWidth="8" markerHeight="8" refX="6" refY="4" orient="auto"><polygon points="0 0, 8 4, 0 8" fill="#1f2937"/></marker><marker id="arrow-accent" markerWidth="8" markerHeight="8" refX="6" refY="4" orient="auto"><polygon points="0 0, 8 4, 0 8" fill="#2563eb"/></marker><marker id="arrow-accent2" markerWidth="8" markerHeight="8" refX="6" refY="4" orient="auto"><polygon points="0 0, 8 4, 0 8" fill="#dc2626"/></marker><marker id="arrow-accent3" markerWidth="8" markerHeight="8" refX="6" refY="4" orient="auto"><polygon points="0 0, 8 4, 0 8" fill="#7c3aed"/></marker></defs>
<line x1="-2.00" y1="234.00" x2="-2.00" y2="14.00" stroke="#e5e7eb" stroke-width="1"/>
<line x1="-2.00" y1="234.00" x2="262.00" y2="234.00" stroke="#e5e7eb" stroke-width="1"/>
<line x1="-2.00" y1="190.00" x2="262.00" y2="190.00" stroke="#1f2937" stroke-width="2" marker-end="url(#arrow)"/>
<line x1="130.00" y1="234.00" x2="130.00" y2="14.00" stroke="#1f2937" stroke-width="2" marker-end="url(#arrow)"/>
<text x="256.00" y="182.00" font-size="13" fill="#111827" text-anchor="end" font-family="Outfit, sans-serif" font-weight="normal">x</text>
<text x="142.00" y="20.00" font-size="13" fill="#111827" text-anchor="middle" font-family="Outfit, sans-serif" font-weight="normal">y</text>
<line x1="4.60" y1="48.76" x2="255.40" y2="199.24" stroke="#2563eb" stroke-width="2.5"/>
<circle cx="240.00" cy="190.00" r="4" fill="#dc2626"/>
<text x="250.00" y="182.00" font-size="12" fill="#dc2626" text-anchor="start" font-family="Outfit, sans-serif" font-weight="normal">a=5</text>
<circle cx="130.00" cy="124.00" r="4" fill="#dc2626"/>
<text x="140.00" y="116.00" font-size="12" fill="#dc2626" text-anchor="start" font-family="Outfit, sans-serif" font-weight="normal">b=3</text>
</svg>
