<svg viewBox="0 0 320 260" xmlns="http://www.w3.org/2000/svg" role="img" aria-label="Pendiente m de una recta">
<rect width="320" height="260" fill="#ffffff"/>
<defs><marker id="arrow" markerWidth="8" markerHeight="8" refX="6" refY="4" orient="auto"><polygon points="0 0, 8 4, 0 8" fill="#1f2937"/></marker><marker id="arrow-accent" markerWidth="8" markerHeight="8" refX="6" refY="4" orient="auto"><polygon points="0 0, 8 4, 0 8" fill="#2563eb"/></marker><marker id="arrow-accent2" markerWidth="8" markerHeight="8" refX="6" refY="4" orient="auto"><polygon points="0 0, 8 4, 0 8" fill="#dc2626"/></marker><marker id="arrow-accent3" markerWidth="8" markerHeight="8" refX="6" refY="4" orient="auto"><polygon points="0 0, 8 4, 0 8" fill="#7c3aed"/></marker></defs>
<line x1="-2.00" y1="234.00" x2="-2.00" y2="14.00" stroke="#e5e7eb" stroke-width="1"/>
<line x1="-2.00" y1="234.00" x2="262.00" y2="234.00" stroke="#e5e7eb" stroke-width="1"/>
<line x1="-2.00" y1="190.00" x2="262.00" y2="190.00" stroke="#1f2937" stroke-width="2" marker-end="url(#arrow)"/>
<line x1="130.00" y1="234.00" x2="130.00" y2="14.00" stroke="#1f2937" stroke-width="2" marker-end="url(#arrow)"/>
<text x="256.00" y="182.00" font-size="13" fill="#111827" text-anchor="end" font-family="Outfit, sans-serif" font-weight="normal">x</text>
<text x="142.00" y="20.00" font-size="13" fill="#111827" text-anchor="middle" font-family="Outfit, sans-serif" font-weight="normal">y</text>
<line x1="90.40" y1="227.40" x2="228.27" y2="20.60" stroke="#2563eb" stroke-width="2.5"/>
<line x1="141.00" y1="151.50" x2="185.00" y2="151.50" stroke="#7c3aed" stroke-width="1.5" stroke-dasharray="4,3"/>
<line x1="185.00" y1="151.50" x2="185.00" y2="85.50" stroke="#7c3aed" stroke-width="1.5" stroke-dasharray="4,3"/>
<text x="163.00" y="165.50" font-size="12" fill="#7c3aed" text-anchor="middle" font-family="Outfit, sans-serif" font-weight="normal">Δx</text>
<text x="197.00" y="118.50" font-size="12" fill="#7c3aed" text-anchor="start" font-family="Outfit, sans-serif" font-weight="normal">Δy</text>
</svg>
