<svg viewBox="0 0 320 260" xmlns="http://www.w3.org/2000/svg" role="img" aria-label="Ecuación dados dos puntos">
<rect width="320" height="260" fill="#ffffff"/>
<defs><marker id="arrow" markerWidth="8" markerHeight="8" refX="6" refY="4" orient="auto"><polygon points="0 0, 8 4, 0 8" fill="#1f2937"/></marker><marker id="arrow-accent" markerWidth="8" markerHeight="8" refX="6" refY="4" orient="auto"><polygon points="0 0, 8 4, 0 8" fill="#2563eb"/></marker><marker id="arrow-accent2" markerWidth="8" markerHeight="8" refX="6" refY="4" orient="auto"><polygon points="0 0, 8 4, 0 8" fill="#dc2626"/></marker><marker id="arrow-accent3" markerWidth="8" markerHeight="8" refX="6" refY="4" orient="auto"><polygon points="0 0, 8 4, 0 8" fill="#7c3aed"/></marker></defs>
<line x1="-2.00" y1="234.00" x2="-2.00" y2="14.00" stroke="#e5e7eb" stroke-width="1"/>
<line x1="-2.00" y1="234.00" x2="262.00" y2="234.00" stroke="#e5e7eb" stroke-width="1"/>
<line x1="-2.00" y1="190.00" x2="262.00" y2="190.00" stroke="#1f2937" stroke-width="2" marker-end="url(#arrow)"/>
<line x1="130.00" y1="234.00" x2="130.00" y2="14.00" stroke="#1f2937" stroke-width="2" marker-end="url(#arrow)"/>
<text x="256.00" y="182.00" font-size="13" fill="#111827" text-anchor="end" font-family="Outfit, sans-serif" font-weight="normal">x</text>
<text x="142.00" y="20.00" font-size="13" fill="#111827" text-anchor="middle" font-family="Outfit, sans-serif" font-weight="normal">y</text>
<line x1="92.60" y1="227.40" x2="255.40" y2="64.60" stroke="#2563eb" stroke-width="2.5"/>
<circle cx="86.00" cy="234.00" r="4" fill="#dc2626"/>
<text x="96.00" y="226.00" font-size="12" fill="#dc2626" text-anchor="start" font-family="Outfit, sans-serif" font-weight="normal">P1(-2,-2)</text>
<circle cx="196.00" cy="124.00" r="4" fill="#dc2626"/>
<text x="206.00" y="116.00" font-size="12" fill="#dc2626" text-anchor="start" font-family="Outfit, sans-serif" font-weight="normal">P2(3,3)</text>
</svg>
