<svg viewBox="0 0 320 260" xmlns="http://www.w3.org/2000/svg" role="img" aria-label="Ángulo interior formado por dos cuerdas"><rect width="320" height="260" fill="#ffffff"/><circle cx="160.00" cy="140.00" r="90.00" fill="none" stroke="#d1d5db" stroke-width="2"/><line x1="246.93" y1="163.29" x2="75.43" y2="109.22" stroke="#1f2937" stroke-width="2"/><line x1="144.37" y1="228.63" x2="205.00" y2="62.06" stroke="#1f2937" stroke-width="2"/><path d="M 205.00 62.06 A 90.00 90.00 0 0 1 246.93 163.29" fill="none" stroke="#dc2626" stroke-width="4"/><path d="M 144.37 228.63 A 90.00 90.00 0 0 1 75.43 109.22" fill="none" stroke="#7c3aed" stroke-width="4"/><path d="M 193.43 146.42 A 18.00 18.00 0 0 1 170.11 157.93" fill="none" stroke="#2563eb" stroke-width="2"/><circle cx="176.26" cy="141.01" r="3" fill="#2563eb"/><circle cx="246.93" cy="163.29" r="3" fill="#1f2937"/><circle cx="75.43" cy="109.22" r="3" fill="#1f2937"/><circle cx="144.37" cy="228.63" r="3" fill="#1f2937"/><circle cx="205.00" cy="62.06" r="3" fill="#1f2937"/><text x="258.93" y="161.29" font-size="13" fill="#111827" text-anchor="middle" font-family="Outfit, sans-serif" font-weight="normal">A</text><text x="61.43" y="111.22" font-size="13" fill="#111827" text-anchor="middle" font-family="Outfit, sans-serif" font-weight="normal">B</text><text x="138.37" y="244.63" font-size="13" fill="#111827" text-anchor="middle" font-family="Outfit, sans-serif" font-weight="normal">C</text><text x="211.00" y="54.06" font-size="13" fill="#111827" text-anchor="middle" font-family="Outfit, sans-serif" font-weight="normal">D</text><text x="160.00" y="245.00" font-size="10" fill="#1f2937" text-anchor="middle" font-family="Outfit, sans-serif" font-weight="normal">∠(AC,BD) = (arco AC + arco BD)/2</text></svg>
