<svg viewBox="0 0 320 260" xmlns="http://www.w3.org/2000/svg" role="img" aria-label="Ángulo exterior formado por dos secantes"><rect width="320" height="260" fill="#ffffff"/><circle cx="210.00" cy="140.00" r="70.00" fill="none" stroke="#d1d5db" stroke-width="2"/><line x1="45.00" y1="140.00" x2="239.86" y2="76.69" stroke="#1f2937" stroke-width="2"/><line x1="45.00" y1="140.00" x2="239.86" y2="203.31" stroke="#1f2937" stroke-width="2"/><path d="M 239.86 76.69 A 70.00 70.00 0 0 1 239.86 203.31" fill="none" stroke="#dc2626" stroke-width="4"/><path d="M 148.63 173.67 A 70.00 70.00 0 0 1 148.63 106.33" fill="none" stroke="#7c3aed" stroke-width="4"/><path d="M 65.92 133.20 A 22.00 22.00 0 0 1 65.92 146.80" fill="none" stroke="#2563eb" stroke-width="2"/><circle cx="45.00" cy="140.00" r="3" fill="#2563eb"/><circle cx="148.63" cy="106.33" r="3" fill="#1f2937"/><circle cx="239.86" cy="76.69" r="3" fill="#1f2937"/><circle cx="148.63" cy="173.67" r="3" fill="#1f2937"/><circle cx="239.86" cy="203.31" r="3" fill="#1f2937"/><text x="41.00" y="156.00" font-size="13" fill="#111827" text-anchor="middle" font-family="Outfit, sans-serif" font-weight="normal">P</text><text x="144.63" y="98.33" font-size="13" fill="#111827" text-anchor="middle" font-family="Outfit, sans-serif" font-weight="normal">A</text><text x="249.86" y="72.69" font-size="13" fill="#111827" text-anchor="middle" font-family="Outfit, sans-serif" font-weight="normal">B</text><text x="144.63" y="189.67" font-size="13" fill="#111827" text-anchor="middle" font-family="Outfit, sans-serif" font-weight="normal">C</text><text x="249.86" y="215.31" font-size="13" fill="#111827" text-anchor="middle" font-family="Outfit, sans-serif" font-weight="normal">D</text><text x="210.00" y="245.00" font-size="11" fill="#1f2937" text-anchor="middle" font-family="Outfit, sans-serif" font-weight="normal">∠P = (arco BD − arco AC)/2</text></svg>
