<svg viewBox="0 0 320 260" xmlns="http://www.w3.org/2000/svg" role="img" aria-label="Ángulos inscritos que subtienden el mismo arco son iguales"><rect width="320" height="260" fill="#ffffff"/><circle cx="160.00" cy="140.00" r="90.00" fill="none" stroke="#d1d5db" stroke-width="2"/><path d="M 244.57 170.78 A 90.00 90.00 0 0 1 144.37 228.63" fill="none" stroke="#dc2626" stroke-width="4"/><line x1="75.43" y1="109.22" x2="244.57" y2="170.78" stroke="#1f2937" stroke-width="2"/><line x1="75.43" y1="109.22" x2="144.37" y2="228.63" stroke="#1f2937" stroke-width="2"/><path d="M 94.22 116.06 A 20.00 20.00 0 0 1 85.43 126.54" fill="none" stroke="#2563eb" stroke-width="2"/><line x1="144.37" y1="51.37" x2="244.57" y2="170.78" stroke="#7c3aed" stroke-width="2"/><line x1="144.37" y1="51.37" x2="144.37" y2="228.63" stroke="#7c3aed" stroke-width="2"/><path d="M 157.23 66.69 A 20.00 20.00 0 0 1 144.37 71.37" fill="none" stroke="#7c3aed" stroke-width="2"/><circle cx="75.43" cy="109.22" r="3" fill="#2563eb"/><circle cx="144.37" cy="51.37" r="3" fill="#7c3aed"/><circle cx="244.57" cy="170.78" r="3" fill="#1f2937"/><circle cx="144.37" cy="228.63" r="3" fill="#1f2937"/><text x="63.43" y="115.22" font-size="13" fill="#111827" text-anchor="middle" font-family="Outfit, sans-serif" font-weight="normal">C₁</text><text x="140.37" y="67.37" font-size="13" fill="#111827" text-anchor="middle" font-family="Outfit, sans-serif" font-weight="normal">C₂</text><text x="234.57" y="164.78" font-size="13" fill="#111827" text-anchor="middle" font-family="Outfit, sans-serif" font-weight="normal">A</text><text x="154.37" y="226.63" font-size="13" fill="#111827" text-anchor="middle" font-family="Outfit, sans-serif" font-weight="normal">B</text><text x="160.00" y="245.00" font-size="11" fill="#1f2937" text-anchor="middle" font-family="Outfit, sans-serif" font-weight="normal">∠AC₁B = ∠AC₂B (mismo arco AB)</text></svg>
