<svg viewBox="0 0 320 260" xmlns="http://www.w3.org/2000/svg" role="img" aria-label="Dodecaedro regular (esquema)"><rect width="320" height="260" fill="#ffffff"/><line x1="160.00" y1="65.00" x2="221.82" y2="109.91" stroke="#1f2937" stroke-width="2"/><line x1="221.82" y1="109.91" x2="198.21" y2="182.59" stroke="#1f2937" stroke-width="2"/><line x1="198.21" y1="182.59" x2="121.79" y2="182.59" stroke="#1f2937" stroke-width="2"/><line x1="121.79" y1="182.59" x2="98.18" y2="109.91" stroke="#1f2937" stroke-width="2"/><line x1="98.18" y1="109.91" x2="160.00" y2="65.00" stroke="#1f2937" stroke-width="2"/><line x1="176.46" y1="122.35" x2="186.63" y2="153.65" stroke="#2563eb" stroke-width="1.5"/><line x1="186.63" y1="153.65" x2="160.00" y2="173.00" stroke="#2563eb" stroke-width="1.5"/><line x1="160.00" y1="173.00" x2="133.37" y2="153.65" stroke="#2563eb" stroke-width="1.5"/><line x1="133.37" y1="153.65" x2="143.54" y2="122.35" stroke="#2563eb" stroke-width="1.5"/><line x1="143.54" y1="122.35" x2="176.46" y2="122.35" stroke="#2563eb" stroke-width="1.5"/><line x1="160.00" y1="65.00" x2="176.46" y2="122.35" stroke="#9ca3af" stroke-width="1" stroke-dasharray="3,3"/><line x1="221.82" y1="109.91" x2="186.63" y2="153.65" stroke="#9ca3af" stroke-width="1" stroke-dasharray="3,3"/><line x1="198.21" y1="182.59" x2="160.00" y2="173.00" stroke="#9ca3af" stroke-width="1" stroke-dasharray="3,3"/><line x1="121.79" y1="182.59" x2="133.37" y2="153.65" stroke="#9ca3af" stroke-width="1" stroke-dasharray="3,3"/><line x1="98.18" y1="109.91" x2="143.54" y2="122.35" stroke="#9ca3af" stroke-width="1" stroke-dasharray="3,3"/><text x="160.00" y="245.00" font-size="10" fill="#1f2937" text-anchor="middle" font-family="Outfit, sans-serif" font-weight="normal">Dodecaedro regular: 12 caras pentagonales</text></svg>
