<svg viewBox="0 0 320 260" xmlns="http://www.w3.org/2000/svg" role="img" aria-label="Recta en el espacio"><rect width="320" height="260" fill="#ffffff"/><line x1="90.00" y1="200.00" x2="190.00" y2="200.00" stroke="#1f2937" stroke-width="2"/><line x1="190.00" y1="200.00" x2="190.00" y2="100.00" stroke="#1f2937" stroke-width="2"/><line x1="190.00" y1="100.00" x2="90.00" y2="100.00" stroke="#1f2937" stroke-width="2"/><line x1="90.00" y1="100.00" x2="90.00" y2="200.00" stroke="#1f2937" stroke-width="2"/><line x1="126.04" y1="174.76" x2="226.04" y2="174.76" stroke="#9ca3af" stroke-width="1.5" stroke-dasharray="4,3"/><line x1="226.04" y1="174.76" x2="226.04" y2="74.76" stroke="#9ca3af" stroke-width="1.5" stroke-dasharray="4,3"/><line x1="226.04" y1="74.76" x2="126.04" y2="74.76" stroke="#9ca3af" stroke-width="1.5" stroke-dasharray="4,3"/><line x1="126.04" y1="74.76" x2="126.04" y2="174.76" stroke="#9ca3af" stroke-width="1.5" stroke-dasharray="4,3"/><line x1="90.00" y1="200.00" x2="126.04" y2="174.76" stroke="#9ca3af" stroke-width="1.5" stroke-dasharray="4,3"/><line x1="190.00" y1="200.00" x2="226.04" y2="174.76" stroke="#9ca3af" stroke-width="1.5" stroke-dasharray="4,3"/><line x1="190.00" y1="100.00" x2="226.04" y2="74.76" stroke="#9ca3af" stroke-width="1.5" stroke-dasharray="4,3"/><line x1="90.00" y1="100.00" x2="126.04" y2="74.76" stroke="#9ca3af" stroke-width="1.5" stroke-dasharray="4,3"/><line x1="65.00" y1="205.00" x2="215.00" y2="195.00" stroke="#2563eb" stroke-width="3"/><circle cx="90.00" cy="200.00" r="3" fill="#1f2937"/><circle cx="190.00" cy="200.00" r="3" fill="#1f2937"/><text x="80.00" y="214.00" font-size="13" fill="#111827" text-anchor="middle" font-family="Outfit, sans-serif" font-weight="normal">A</text><text x="200.00" y="214.00" font-size="13" fill="#111827" text-anchor="middle" font-family="Outfit, sans-serif" font-weight="normal">B</text><text x="221.00" y="193.00" font-size="14" fill="#2563eb" text-anchor="middle" font-family="Outfit, sans-serif" font-weight="bold">L</text><text x="160.00" y="245.00" font-size="12" fill="#1f2937" text-anchor="middle" font-family="Outfit, sans-serif" font-weight="normal">Recta L, que contiene a A y B</text></svg>
