<svg viewBox="0 0 320 260" xmlns="http://www.w3.org/2000/svg" role="img" aria-label="Bases de un prisma recto"><rect width="320" height="260" fill="#ffffff"/><line x1="90.00" y1="200.00" x2="190.00" y2="200.00" stroke="#1f2937" stroke-width="2"/><line x1="190.00" y1="200.00" x2="190.00" y2="100.00" stroke="#1f2937" stroke-width="2"/><line x1="190.00" y1="100.00" x2="90.00" y2="100.00" stroke="#1f2937" stroke-width="2"/><line x1="90.00" y1="100.00" x2="90.00" y2="200.00" stroke="#1f2937" stroke-width="2"/><line x1="126.04" y1="174.76" x2="226.04" y2="174.76" stroke="#9ca3af" stroke-width="1.5" stroke-dasharray="4,3"/><line x1="226.04" y1="174.76" x2="226.04" y2="74.76" stroke="#9ca3af" stroke-width="1.5" stroke-dasharray="4,3"/><line x1="226.04" y1="74.76" x2="126.04" y2="74.76" stroke="#9ca3af" stroke-width="1.5" stroke-dasharray="4,3"/><line x1="126.04" y1="74.76" x2="126.04" y2="174.76" stroke="#9ca3af" stroke-width="1.5" stroke-dasharray="4,3"/><line x1="90.00" y1="200.00" x2="126.04" y2="174.76" stroke="#9ca3af" stroke-width="1.5" stroke-dasharray="4,3"/><line x1="190.00" y1="200.00" x2="226.04" y2="174.76" stroke="#9ca3af" stroke-width="1.5" stroke-dasharray="4,3"/><line x1="190.00" y1="100.00" x2="226.04" y2="74.76" stroke="#9ca3af" stroke-width="1.5" stroke-dasharray="4,3"/><line x1="90.00" y1="100.00" x2="126.04" y2="74.76" stroke="#9ca3af" stroke-width="1.5" stroke-dasharray="4,3"/><polygon points="90.00,100.00 190.00,100.00 226.04,74.76 126.04,74.76" fill="#2563eb" fill-opacity="0.3" stroke="#2563eb" stroke-width="2"/><polygon points="90.00,200.00 190.00,200.00 226.04,174.76 126.04,174.76" fill="#2563eb" fill-opacity="0.3" stroke="#2563eb" stroke-width="2"/><text x="160.00" y="245.00" font-size="9" fill="#1f2937" text-anchor="middle" font-family="Outfit, sans-serif" font-weight="normal">Bases: caras superior e inferior, paralelas y congruentes</text></svg>
