<svg viewBox="0 0 320 260" xmlns="http://www.w3.org/2000/svg" role="img" aria-label="Concepto de sólido de revolución"><rect width="320" height="260" fill="#ffffff"/><line x1="90.00" y1="50.00" x2="90.00" y2="220.00" stroke="#9ca3af" stroke-width="2" stroke-dasharray="3,3"/><text x="90.00" y="240.00" font-size="10" fill="#6b7280" text-anchor="middle" font-family="Outfit, sans-serif" font-weight="normal">eje</text><rect x="90" y="90" width="35" height="90" fill="#2563eb" fill-opacity="0.25" stroke="#2563eb" stroke-width="2"/><text x="107.00" y="85.00" font-size="9" fill="#2563eb" text-anchor="middle" font-family="Outfit, sans-serif" font-weight="normal">figura plana</text><path d="M 140 100 A 30 15 0 0 1 140 160" fill="none" stroke="#1f2937" stroke-width="1.5" marker-end="url(#arrowhead)"/><defs><marker id="arrowhead" markerWidth="8" markerHeight="8" refX="6" refY="4" orient="auto"><polygon points="0 0, 8 4, 0 8" fill="#1f2937"/></marker></defs><line x1="188.00" y1="100.00" x2="188.00" y2="190.00" stroke="#1f2937" stroke-width="2"/><line x1="272.00" y1="100.00" x2="272.00" y2="190.00" stroke="#1f2937" stroke-width="2"/><ellipse cx="230.00" cy="190.00" rx="42.00" ry="14.70" fill="none" stroke="#1f2937" stroke-width="2"/><path d="M 188.00 100.00 A 42.00 14.70 0 0 0 272.00 100.00" fill="none" stroke="#1f2937" stroke-width="2" stroke-dasharray="4,3"/><path d="M 188.00 100.00 A 42.00 14.70 0 0 1 272.00 100.00" fill="none" stroke="#1f2937" stroke-width="2"/><text x="160.00" y="245.00" font-size="8" fill="#1f2937" text-anchor="middle" font-family="Outfit, sans-serif" font-weight="normal">Rotar una figura plana en torno a un eje genera un sólido</text></svg>
