<svg viewBox="0 0 320 260" xmlns="http://www.w3.org/2000/svg" role="img" aria-label="Ángulo exterior = suma de interiores no adyacentes">
<rect width="320" height="260" fill="#ffffff"/>
<line x1="40.00" y1="215.00" x2="299.60" y2="215.00" stroke="#1f2937" stroke-width="1.5" stroke-dasharray="4,3"/>
<line x1="40.00" y1="215.00" x2="260.00" y2="215.00" stroke="#1f2937" stroke-width="2"/>
<line x1="260.00" y1="215.00" x2="140.00" y2="65.00" stroke="#1f2937" stroke-width="2"/>
<line x1="140.00" y1="65.00" x2="40.00" y2="215.00" stroke="#1f2937" stroke-width="2"/>
<path d="M 54.42 193.37 A 26 26 0 0 1 66.00 215.00" fill="none" stroke="#2563eb" stroke-width="2"/><text x="77.03" y="195.18" font-size="14" fill="#2563eb" text-anchor="middle" font-family="Outfit, sans-serif" font-weight="600">α</text>
<path d="M 156.24 85.30 A 26 26 0 0 1 125.58 86.63" fill="none" stroke="#2563eb" stroke-width="2"/><text x="141.82" y="106.96" font-size="14" fill="#2563eb" text-anchor="middle" font-family="Outfit, sans-serif" font-weight="600">γ</text>
<circle cx="40.00" cy="215.00" r="3" fill="#1f2937"/>
<text x="21.89" y="223.49" font-size="15" fill="#111827" text-anchor="middle" font-family="Outfit, sans-serif" font-weight="600">A</text>
<circle cx="260.00" cy="215.00" r="3" fill="#1f2937"/>
<text x="278.30" y="223.07" font-size="15" fill="#111827" text-anchor="middle" font-family="Outfit, sans-serif" font-weight="600">B</text>
<circle cx="140.00" cy="65.00" r="3" fill="#1f2937"/>
<text x="138.67" y="45.04" font-size="15" fill="#111827" text-anchor="middle" font-family="Outfit, sans-serif" font-weight="600">C</text>
<line x1="260.00" y1="215.00" x2="299.60" y2="215.00" stroke="#1f2937" stroke-width="2" stroke-dasharray="4,3"/><text x="309.60" y="209.00" font-size="14" fill="#dc2626" text-anchor="middle" font-family="Outfit, sans-serif" font-weight="normal">δ</text></svg>
