<svg viewBox="0 0 320 260" xmlns="http://www.w3.org/2000/svg" role="img" aria-label="Procedimiento de traslación de puntos"><rect width="320" height="260" fill="#ffffff"/><defs><marker id="arrow" markerWidth="8" markerHeight="8" refX="6" refY="4" orient="auto"><polygon points="0 0, 8 4, 0 8" fill="#1f2937"/></marker><marker id="arrow-accent" markerWidth="8" markerHeight="8" refX="6" refY="4" orient="auto"><polygon points="0 0, 8 4, 0 8" fill="#2563eb"/></marker><marker id="arrow-accent2" markerWidth="8" markerHeight="8" refX="6" refY="4" orient="auto"><polygon points="0 0, 8 4, 0 8" fill="#dc2626"/></marker><marker id="arrow-accent3" markerWidth="8" markerHeight="8" refX="6" refY="4" orient="auto"><polygon points="0 0, 8 4, 0 8" fill="#7c3aed"/></marker></defs><line x1="10.00" y1="240.00" x2="10.00" y2="40.00" stroke="#e5e7eb" stroke-width="1"/><line x1="35.00" y1="240.00" x2="35.00" y2="40.00" stroke="#e5e7eb" stroke-width="1"/><line x1="60.00" y1="240.00" x2="60.00" y2="40.00" stroke="#e5e7eb" stroke-width="1"/><line x1="85.00" y1="240.00" x2="85.00" y2="40.00" stroke="#e5e7eb" stroke-width="1"/><line x1="110.00" y1="240.00" x2="110.00" y2="40.00" stroke="#e5e7eb" stroke-width="1"/><line x1="135.00" y1="240.00" x2="135.00" y2="40.00" stroke="#e5e7eb" stroke-width="1"/><line x1="185.00" y1="240.00" x2="185.00" y2="40.00" stroke="#e5e7eb" stroke-width="1"/><line x1="210.00" y1="240.00" x2="210.00" y2="40.00" stroke="#e5e7eb" stroke-width="1"/><line x1="235.00" y1="240.00" x2="235.00" y2="40.00" stroke="#e5e7eb" stroke-width="1"/><line x1="260.00" y1="240.00" x2="260.00" y2="40.00" stroke="#e5e7eb" stroke-width="1"/><line x1="285.00" y1="240.00" x2="285.00" y2="40.00" stroke="#e5e7eb" stroke-width="1"/><line x1="310.00" y1="240.00" x2="310.00" y2="40.00" stroke="#e5e7eb" stroke-width="1"/><line x1="10.00" y1="240.00" x2="310.00" y2="240.00" stroke="#e5e7eb" stroke-width="1"/><line x1="10.00" y1="215.00" x2="310.00" y2="215.00" stroke="#e5e7eb" stroke-width="1"/><line x1="10.00" y1="190.00" x2="310.00" y2="190.00" stroke="#e5e7eb" stroke-width="1"/><line x1="10.00" y1="165.00" x2="310.00" y2="165.00" stroke="#e5e7eb" stroke-width="1"/><line x1="10.00" y1="115.00" x2="310.00" y2="115.00" stroke="#e5e7eb" stroke-width="1"/><line x1="10.00" y1="90.00" x2="310.00" y2="90.00" stroke="#e5e7eb" stroke-width="1"/><line x1="10.00" y1="65.00" x2="310.00" y2="65.00" stroke="#e5e7eb" stroke-width="1"/><line x1="10.00" y1="40.00" x2="310.00" y2="40.00" stroke="#e5e7eb" stroke-width="1"/><line x1="10.00" y1="140.00" x2="310.00" y2="140.00" stroke="#1f2937" stroke-width="2" marker-end="url(#arrow)"/><line x1="160.00" y1="240.00" x2="160.00" y2="40.00" stroke="#1f2937" stroke-width="2" marker-end="url(#arrow)"/><text x="304.00" y="132.00" font-size="13" fill="#111827" text-anchor="end" font-family="Outfit, sans-serif" font-weight="normal">x</text><text x="172.00" y="46.00" font-size="13" fill="#111827" text-anchor="middle" font-family="Outfit, sans-serif" font-weight="normal">y</text><text x="10.00" y="154.00" font-size="10" fill="#6b7280" text-anchor="middle" font-family="Outfit, sans-serif" font-weight="normal">-6</text><text x="35.00" y="154.00" font-size="10" fill="#6b7280" text-anchor="middle" font-family="Outfit, sans-serif" font-weight="normal">-5</text><text x="60.00" y="154.00" font-size="10" fill="#6b7280" text-anchor="middle" font-family="Outfit, sans-serif" font-weight="normal">-4</text><text x="85.00" y="154.00" font-size="10" fill="#6b7280" text-anchor="middle" font-family="Outfit, sans-serif" font-weight="normal">-3</text><text x="110.00" y="154.00" font-size="10" fill="#6b7280" text-anchor="middle" font-family="Outfit, sans-serif" font-weight="normal">-2</text><text x="135.00" y="154.00" font-size="10" fill="#6b7280" text-anchor="middle" font-family="Outfit, sans-serif" font-weight="normal">-1</text><text x="185.00" y="154.00" font-size="10" fill="#6b7280" text-anchor="middle" font-family="Outfit, sans-serif" font-weight="normal">1</text><text x="210.00" y="154.00" font-size="10" fill="#6b7280" text-anchor="middle" font-family="Outfit, sans-serif" font-weight="normal">2</text><text x="235.00" y="154.00" font-size="10" fill="#6b7280" text-anchor="middle" font-family="Outfit, sans-serif" font-weight="normal">3</text><text x="260.00" y="154.00" font-size="10" fill="#6b7280" text-anchor="middle" font-family="Outfit, sans-serif" font-weight="normal">4</text><text x="285.00" y="154.00" font-size="10" fill="#6b7280" text-anchor="middle" font-family="Outfit, sans-serif" font-weight="normal">5</text><text x="310.00" y="154.00" font-size="10" fill="#6b7280" text-anchor="middle" font-family="Outfit, sans-serif" font-weight="normal">6</text><text x="150.00" y="244.00" font-size="10" fill="#6b7280" text-anchor="middle" font-family="Outfit, sans-serif" font-weight="normal">-4</text><text x="150.00" y="219.00" font-size="10" fill="#6b7280" text-anchor="middle" font-family="Outfit, sans-serif" font-weight="normal">-3</text><text x="150.00" y="194.00" font-size="10" fill="#6b7280" text-anchor="middle" font-family="Outfit, sans-serif" font-weight="normal">-2</text><text x="150.00" y="169.00" font-size="10" fill="#6b7280" text-anchor="middle" font-family="Outfit, sans-serif" font-weight="normal">-1</text><text x="150.00" y="119.00" font-size="10" fill="#6b7280" text-anchor="middle" font-family="Outfit, sans-serif" font-weight="normal">1</text><text x="150.00" y="94.00" font-size="10" fill="#6b7280" text-anchor="middle" font-family="Outfit, sans-serif" font-weight="normal">2</text><text x="150.00" y="69.00" font-size="10" fill="#6b7280" text-anchor="middle" font-family="Outfit, sans-serif" font-weight="normal">3</text><text x="150.00" y="44.00" font-size="10" fill="#6b7280" text-anchor="middle" font-family="Outfit, sans-serif" font-weight="normal">4</text><line x1="85.00" y1="190.00" x2="185.00" y2="115.00" stroke="#2563eb" stroke-width="3" marker-end="url(#arrow-accent)"/><circle cx="85.00" cy="190.00" r="4" fill="#1f2937"/><text x="75.00" y="206.00" font-size="10" fill="#1f2937" text-anchor="middle" font-family="Outfit, sans-serif" font-weight="normal">P(-3,-2)</text><text x="193.00" y="109.00" font-size="10" fill="#2563eb" text-anchor="middle" font-family="Outfit, sans-serif" font-weight="normal">P'(1,1)</text><text x="160.00" y="245.00" font-size="9" fill="#1f2937" text-anchor="middle" font-family="Outfit, sans-serif" font-weight="normal">P'(x+a, y+b): trasladar un punto con v=(a,b)</text></svg>
