<svg viewBox="0 0 320 260" xmlns="http://www.w3.org/2000/svg" role="img" aria-label="Ángulos congruentes en un polígono regular"><rect width="320" height="260" fill="#ffffff"/><line x1="160.00" y1="45.00" x2="242.27" y2="92.50" stroke="#1f2937" stroke-width="2"/><line x1="242.27" y1="92.50" x2="242.27" y2="187.50" stroke="#1f2937" stroke-width="2"/><line x1="242.27" y1="187.50" x2="160.00" y2="235.00" stroke="#1f2937" stroke-width="2"/><line x1="160.00" y1="235.00" x2="77.73" y2="187.50" stroke="#1f2937" stroke-width="2"/><line x1="77.73" y1="187.50" x2="77.73" y2="92.50" stroke="#1f2937" stroke-width="2"/><line x1="77.73" y1="92.50" x2="160.00" y2="45.00" stroke="#1f2937" stroke-width="2"/><path d="M 173.86 53.00 A 16 16 0 0 1 146.14 53.00" fill="none" stroke="#dc2626" stroke-width="2"/><path d="M 242.27 108.50 A 16 16 0 0 1 228.42 84.50" fill="none" stroke="#dc2626" stroke-width="2"/><path d="M 228.42 195.50 A 16 16 0 0 1 242.27 171.50" fill="none" stroke="#dc2626" stroke-width="2"/><path d="M 146.14 227.00 A 16 16 0 0 1 173.86 227.00" fill="none" stroke="#dc2626" stroke-width="2"/><path d="M 77.73 171.50 A 16 16 0 0 1 91.58 195.50" fill="none" stroke="#dc2626" stroke-width="2"/><path d="M 91.58 84.50 A 16 16 0 0 1 77.73 108.50" fill="none" stroke="#dc2626" stroke-width="2"/></svg>
