<svg viewBox="0 0 320 260" xmlns="http://www.w3.org/2000/svg" role="img" aria-label="Diagonal de un polígono"><rect width="320" height="260" fill="#ffffff"/><line x1="160.00" y1="45.00" x2="242.27" y2="92.50" stroke="#1f2937" stroke-width="2"/><line x1="242.27" y1="92.50" x2="242.27" y2="187.50" stroke="#1f2937" stroke-width="2"/><line x1="242.27" y1="187.50" x2="160.00" y2="235.00" stroke="#1f2937" stroke-width="2"/><line x1="160.00" y1="235.00" x2="77.73" y2="187.50" stroke="#1f2937" stroke-width="2"/><line x1="77.73" y1="187.50" x2="77.73" y2="92.50" stroke="#1f2937" stroke-width="2"/><line x1="77.73" y1="92.50" x2="160.00" y2="45.00" stroke="#1f2937" stroke-width="2"/><line x1="160.00" y1="45.00" x2="160.00" y2="235.00" stroke="#dc2626" stroke-width="2"/><circle cx="160.00" cy="45.00" r="3" fill="#1f2937"/><text x="160.00" y="35.00" font-size="12" fill="#111827" text-anchor="middle" font-family="Outfit, sans-serif" font-weight="600">A</text><circle cx="242.27" cy="92.50" r="3" fill="#1f2937"/><text x="242.27" y="82.50" font-size="12" fill="#111827" text-anchor="middle" font-family="Outfit, sans-serif" font-weight="600">B</text><circle cx="242.27" cy="187.50" r="3" fill="#1f2937"/><text x="242.27" y="205.50" font-size="12" fill="#111827" text-anchor="middle" font-family="Outfit, sans-serif" font-weight="600">C</text><circle cx="160.00" cy="235.00" r="3" fill="#1f2937"/><text x="160.00" y="253.00" font-size="12" fill="#111827" text-anchor="middle" font-family="Outfit, sans-serif" font-weight="600">D</text><circle cx="77.73" cy="187.50" r="3" fill="#1f2937"/><text x="77.73" y="205.50" font-size="12" fill="#111827" text-anchor="middle" font-family="Outfit, sans-serif" font-weight="600">E</text><circle cx="77.73" cy="92.50" r="3" fill="#1f2937"/><text x="77.73" y="82.50" font-size="12" fill="#111827" text-anchor="middle" font-family="Outfit, sans-serif" font-weight="600">F</text></svg>
