<svg viewBox="0 0 320 260" xmlns="http://www.w3.org/2000/svg" role="img" aria-label="Total de diagonales de un polígono"><rect width="320" height="260" fill="#ffffff"/><line x1="160.00" y1="45.00" x2="242.27" y2="92.50" stroke="#1f2937" stroke-width="2"/><line x1="242.27" y1="92.50" x2="242.27" y2="187.50" stroke="#1f2937" stroke-width="2"/><line x1="242.27" y1="187.50" x2="160.00" y2="235.00" stroke="#1f2937" stroke-width="2"/><line x1="160.00" y1="235.00" x2="77.73" y2="187.50" stroke="#1f2937" stroke-width="2"/><line x1="77.73" y1="187.50" x2="77.73" y2="92.50" stroke="#1f2937" stroke-width="2"/><line x1="77.73" y1="92.50" x2="160.00" y2="45.00" stroke="#1f2937" stroke-width="2"/><line x1="160.00" y1="45.00" x2="242.27" y2="187.50" stroke="#dc2626" stroke-width="1" stroke-dasharray="2,2"/><line x1="160.00" y1="45.00" x2="160.00" y2="235.00" stroke="#dc2626" stroke-width="1" stroke-dasharray="2,2"/><line x1="160.00" y1="45.00" x2="77.73" y2="187.50" stroke="#dc2626" stroke-width="1" stroke-dasharray="2,2"/><line x1="242.27" y1="92.50" x2="160.00" y2="235.00" stroke="#dc2626" stroke-width="1" stroke-dasharray="2,2"/><line x1="242.27" y1="92.50" x2="77.73" y2="187.50" stroke="#dc2626" stroke-width="1" stroke-dasharray="2,2"/><line x1="242.27" y1="92.50" x2="77.73" y2="92.50" stroke="#dc2626" stroke-width="1" stroke-dasharray="2,2"/><line x1="242.27" y1="187.50" x2="77.73" y2="187.50" stroke="#dc2626" stroke-width="1" stroke-dasharray="2,2"/><line x1="242.27" y1="187.50" x2="77.73" y2="92.50" stroke="#dc2626" stroke-width="1" stroke-dasharray="2,2"/><line x1="160.00" y1="235.00" x2="77.73" y2="92.50" stroke="#dc2626" stroke-width="1" stroke-dasharray="2,2"/><text x="160.00" y="250.00" font-size="10" fill="#1f2937" text-anchor="middle" font-family="Outfit, sans-serif" font-weight="normal">Total = n(n-3)/2 = 9 diagonales (n=6)</text></svg>
