<svg viewBox="0 0 320 260" xmlns="http://www.w3.org/2000/svg" role="img" aria-label="Cuadrante de un ángulo">
<rect width="320" height="260" fill="#ffffff"/>
<defs><marker id="arrow" markerWidth="8" markerHeight="8" refX="6" refY="4" orient="auto"><polygon points="0 0, 8 4, 0 8" fill="#1f2937"/></marker><marker id="arrow-accent" markerWidth="8" markerHeight="8" refX="6" refY="4" orient="auto"><polygon points="0 0, 8 4, 0 8" fill="#2563eb"/></marker><marker id="arrow-accent2" markerWidth="8" markerHeight="8" refX="6" refY="4" orient="auto"><polygon points="0 0, 8 4, 0 8" fill="#dc2626"/></marker><marker id="arrow-accent3" markerWidth="8" markerHeight="8" refX="6" refY="4" orient="auto"><polygon points="0 0, 8 4, 0 8" fill="#7c3aed"/></marker></defs>
<line x1="32.00" y1="238.00" x2="32.00" y2="42.00" stroke="#e5e7eb" stroke-width="1"/>
<line x1="32.00" y1="238.00" x2="228.00" y2="238.00" stroke="#e5e7eb" stroke-width="1"/>
<line x1="32.00" y1="140.00" x2="228.00" y2="140.00" stroke="#1f2937" stroke-width="2" marker-end="url(#arrow)"/>
<line x1="130.00" y1="238.00" x2="130.00" y2="42.00" stroke="#1f2937" stroke-width="2" marker-end="url(#arrow)"/>
<text x="222.00" y="132.00" font-size="13" fill="#111827" text-anchor="end" font-family="Outfit, sans-serif" font-weight="normal">x</text>
<text x="142.00" y="48.00" font-size="13" fill="#111827" text-anchor="middle" font-family="Outfit, sans-serif" font-weight="normal">y</text>
<line x1="130.00" y1="140.00" x2="214.00" y2="140.00" stroke="#1f2937" stroke-width="2" marker-end="url(#arrow)"/>
<line x1="130.00" y1="140.00" x2="57.25" y2="182.00" stroke="#2563eb" stroke-width="2.5" marker-end="url(#arrow-accent)"/>
<path d="M 158.00 140.00 A 28 28 0 1 0 105.75 154.00" fill="none" stroke="#2563eb" stroke-width="2"/>
<text x="118.61" y="97.50" font-size="13" fill="#2563eb" text-anchor="middle" font-family="Outfit, sans-serif" font-weight="600">θ=210°</text>
<circle cx="57.25" cy="182.00" r="4" fill="#dc2626"/>
<text x="45.25" y="174.00" font-size="13" fill="#dc2626" text-anchor="end" font-family="Outfit, sans-serif" font-weight="normal">P</text>
<text x="134.00" y="156.00" font-size="12" fill="#111827" text-anchor="middle" font-family="Outfit, sans-serif" font-weight="normal">O</text>
<text x="210.00" y="60.00" font-size="14" fill="#6b7280" text-anchor="middle" font-family="Outfit, sans-serif" font-weight="600">I</text>
<text x="50.00" y="60.00" font-size="14" fill="#6b7280" text-anchor="middle" font-family="Outfit, sans-serif" font-weight="600">II</text>
<text x="50.00" y="220.00" font-size="14" fill="#6b7280" text-anchor="middle" font-family="Outfit, sans-serif" font-weight="600">III</text>
<text x="210.00" y="220.00" font-size="14" fill="#6b7280" text-anchor="middle" font-family="Outfit, sans-serif" font-weight="600">IV</text>
</svg>
