<svg viewBox="0 0 320 260" xmlns="http://www.w3.org/2000/svg" role="img" aria-label="Identidad pitagórica en la circunferencia unitaria">
<rect width="320" height="260" fill="#ffffff"/>
<defs><marker id="arrow" markerWidth="8" markerHeight="8" refX="6" refY="4" orient="auto"><polygon points="0 0, 8 4, 0 8" fill="#1f2937"/></marker><marker id="arrow-accent" markerWidth="8" markerHeight="8" refX="6" refY="4" orient="auto"><polygon points="0 0, 8 4, 0 8" fill="#2563eb"/></marker><marker id="arrow-accent2" markerWidth="8" markerHeight="8" refX="6" refY="4" orient="auto"><polygon points="0 0, 8 4, 0 8" fill="#dc2626"/></marker><marker id="arrow-accent3" markerWidth="8" markerHeight="8" refX="6" refY="4" orient="auto"><polygon points="0 0, 8 4, 0 8" fill="#7c3aed"/></marker></defs>
<line x1="35.00" y1="130.00" x2="245.00" y2="130.00" stroke="#1f2937" stroke-width="2" marker-end="url(#arrow)"/>
<line x1="140.00" y1="235.00" x2="140.00" y2="25.00" stroke="#1f2937" stroke-width="2" marker-end="url(#arrow)"/>
<circle cx="140" cy="130" r="85" fill="none" stroke="#1f2937" stroke-width="1.5"/>
<line x1="140.00" y1="130.00" x2="205.11" y2="75.36" stroke="#2563eb" stroke-width="2.5"/>
<path d="M 164.00 130.00 A 24 24 0 0 0 158.39 114.57" fill="none" stroke="#2563eb" stroke-width="2"/>
<text x="177.59" y="116.32" font-size="13" fill="#2563eb" text-anchor="middle" font-family="Outfit, sans-serif" font-weight="600">θ=40°</text>
<line x1="205.11" y1="75.36" x2="205.11" y2="130.00" stroke="#dc2626" stroke-width="1.5" stroke-dasharray="4,3"/>
<line x1="205.11" y1="75.36" x2="140.00" y2="75.36" stroke="#7c3aed" stroke-width="1.5" stroke-dasharray="4,3"/>
<text x="205.11" y="146.00" font-size="12" fill="#dc2626" text-anchor="middle" font-family="Outfit, sans-serif" font-weight="normal">cosθ</text>
<text x="110.00" y="69.36" font-size="12" fill="#7c3aed" text-anchor="middle" font-family="Outfit, sans-serif" font-weight="normal">sinθ</text>
<circle cx="205.11" cy="75.36" r="4" fill="#1f2937"/>
<text x="215.11" y="67.36" font-size="11" fill="#111827" text-anchor="start" font-family="Outfit, sans-serif" font-weight="normal">P(cosθ, sinθ)</text>
<text x="180.56" y="98.68" font-size="11" fill="#1f2937" text-anchor="middle" font-family="Outfit, sans-serif" font-weight="normal">r=1</text>
</svg>
