<svg viewBox="0 0 320 260" xmlns="http://www.w3.org/2000/svg" role="img" aria-label="Reducción de la tangente al primer cuadrante">
<rect width="320" height="260" fill="#ffffff"/>
<defs><marker id="arrow" markerWidth="8" markerHeight="8" refX="6" refY="4" orient="auto"><polygon points="0 0, 8 4, 0 8" fill="#1f2937"/></marker><marker id="arrow-accent" markerWidth="8" markerHeight="8" refX="6" refY="4" orient="auto"><polygon points="0 0, 8 4, 0 8" fill="#2563eb"/></marker><marker id="arrow-accent2" markerWidth="8" markerHeight="8" refX="6" refY="4" orient="auto"><polygon points="0 0, 8 4, 0 8" fill="#dc2626"/></marker><marker id="arrow-accent3" markerWidth="8" markerHeight="8" refX="6" refY="4" orient="auto"><polygon points="0 0, 8 4, 0 8" fill="#7c3aed"/></marker></defs>
<line x1="32.00" y1="238.00" x2="32.00" y2="42.00" stroke="#e5e7eb" stroke-width="1"/>
<line x1="32.00" y1="238.00" x2="228.00" y2="238.00" stroke="#e5e7eb" stroke-width="1"/>
<line x1="32.00" y1="140.00" x2="228.00" y2="140.00" stroke="#1f2937" stroke-width="2" marker-end="url(#arrow)"/>
<line x1="130.00" y1="238.00" x2="130.00" y2="42.00" stroke="#1f2937" stroke-width="2" marker-end="url(#arrow)"/>
<text x="222.00" y="132.00" font-size="13" fill="#111827" text-anchor="end" font-family="Outfit, sans-serif" font-weight="normal">x</text>
<text x="142.00" y="48.00" font-size="13" fill="#111827" text-anchor="middle" font-family="Outfit, sans-serif" font-weight="normal">y</text>
<line x1="130.00" y1="140.00" x2="214.00" y2="140.00" stroke="#1f2937" stroke-width="2" marker-end="url(#arrow)"/>
<line x1="130.00" y1="140.00" x2="88.00" y2="67.25" stroke="#2563eb" stroke-width="2.5" marker-end="url(#arrow-accent)"/>
<path d="M 164.00 140.00 A 34 34 0 0 0 113.00 110.56" fill="none" stroke="#2563eb" stroke-width="2"/>
<text x="153.00" y="100.16" font-size="13" fill="#2563eb" text-anchor="middle" font-family="Outfit, sans-serif" font-weight="600">θ=120°</text>
<path d="M 81.00 140.00 A 18 18 0 0 0 128.25 136.97" fill="none" stroke="#7c3aed" stroke-width="2" stroke-dasharray="3,2"/>
<text x="74.00" y="53.25" font-size="12" fill="#7c3aed" text-anchor="middle" font-family="Outfit, sans-serif" font-weight="600">α=60°</text>
<circle cx="88.00" cy="67.25" r="4" fill="#dc2626"/>
<text x="134.00" y="156.00" font-size="12" fill="#111827" text-anchor="middle" font-family="Outfit, sans-serif" font-weight="normal">O</text>
</svg>
