<svg viewBox="0 0 320 260" xmlns="http://www.w3.org/2000/svg" role="img" aria-label="Coseno de ángulos suplementarios">
<rect width="320" height="260" fill="#ffffff"/>
<defs><marker id="arrow" markerWidth="8" markerHeight="8" refX="6" refY="4" orient="auto"><polygon points="0 0, 8 4, 0 8" fill="#1f2937"/></marker><marker id="arrow-accent" markerWidth="8" markerHeight="8" refX="6" refY="4" orient="auto"><polygon points="0 0, 8 4, 0 8" fill="#2563eb"/></marker><marker id="arrow-accent2" markerWidth="8" markerHeight="8" refX="6" refY="4" orient="auto"><polygon points="0 0, 8 4, 0 8" fill="#dc2626"/></marker><marker id="arrow-accent3" markerWidth="8" markerHeight="8" refX="6" refY="4" orient="auto"><polygon points="0 0, 8 4, 0 8" fill="#7c3aed"/></marker></defs>
<line x1="32.00" y1="238.00" x2="32.00" y2="42.00" stroke="#e5e7eb" stroke-width="1"/>
<line x1="32.00" y1="238.00" x2="228.00" y2="238.00" stroke="#e5e7eb" stroke-width="1"/>
<line x1="32.00" y1="140.00" x2="228.00" y2="140.00" stroke="#1f2937" stroke-width="2" marker-end="url(#arrow)"/>
<line x1="130.00" y1="238.00" x2="130.00" y2="42.00" stroke="#1f2937" stroke-width="2" marker-end="url(#arrow)"/>
<text x="222.00" y="132.00" font-size="13" fill="#111827" text-anchor="end" font-family="Outfit, sans-serif" font-weight="normal">x</text>
<text x="142.00" y="48.00" font-size="13" fill="#111827" text-anchor="middle" font-family="Outfit, sans-serif" font-weight="normal">y</text>
<line x1="130.00" y1="140.00" x2="198.81" y2="91.82" stroke="#2563eb" stroke-width="2.5"/>
<path d="M 150.00 140.00 A 20 20 0 0 0 146.38 128.53" fill="none" stroke="#2563eb" stroke-width="2"/>
<line x1="130.00" y1="140.00" x2="61.19" y2="91.82" stroke="#7c3aed" stroke-width="2.5"/>
<path d="M 164.00 140.00 A 34 34 0 0 0 102.15 120.50" fill="none" stroke="#7c3aed" stroke-width="2"/>
<text x="208.81" y="83.82" font-size="12" fill="#2563eb" text-anchor="start" font-family="Outfit, sans-serif" font-weight="600">θ=35°</text>
<text x="51.19" y="83.82" font-size="12" fill="#7c3aed" text-anchor="end" font-family="Outfit, sans-serif" font-weight="600">180°-θ=145°</text>
</svg>
