<svg viewBox="0 0 320 260" xmlns="http://www.w3.org/2000/svg" role="img" aria-label="Selección entre ley de senos y ley de cosenos">
<rect width="320" height="260" fill="#ffffff"/>
<line x1="40.00" y1="215.00" x2="260.00" y2="215.00" stroke="#1f2937" stroke-width="2"/>
<line x1="260.00" y1="215.00" x2="140.00" y2="65.00" stroke="#1f2937" stroke-width="2"/>
<line x1="140.00" y1="65.00" x2="40.00" y2="215.00" stroke="#1f2937" stroke-width="2"/>
<text x="151.20" y="232.96" font-size="14" fill="#111827" text-anchor="middle" font-family="Outfit, sans-serif" font-weight="normal">c</text>
<text x="216.30" y="132.36" font-size="14" fill="#111827" text-anchor="middle" font-family="Outfit, sans-serif" font-weight="normal">a</text>
<text x="73.53" y="132.73" font-size="14" fill="#111827" text-anchor="middle" font-family="Outfit, sans-serif" font-weight="normal">b</text>
<path d="M 54.42 193.37 A 26 26 0 0 1 66.00 215.00" fill="none" stroke="#2563eb" stroke-width="2"/><text x="77.03" y="195.18" font-size="14" fill="#2563eb" text-anchor="middle" font-family="Outfit, sans-serif" font-weight="600">A</text>
<path d="M 234.00 215.00 A 26 26 0 0 1 243.76 194.70" fill="none" stroke="#2563eb" stroke-width="2"/><text x="222.15" y="196.81" font-size="14" fill="#2563eb" text-anchor="middle" font-family="Outfit, sans-serif" font-weight="600">B</text>
<path d="M 156.24 85.30 A 26 26 0 0 1 125.58 86.63" fill="none" stroke="#2563eb" stroke-width="2"/><text x="141.82" y="106.96" font-size="14" fill="#2563eb" text-anchor="middle" font-family="Outfit, sans-serif" font-weight="600">C</text>
<circle cx="40.00" cy="215.00" r="3" fill="#1f2937"/>
<text x="21.89" y="223.49" font-size="15" fill="#111827" text-anchor="middle" font-family="Outfit, sans-serif" font-weight="600">A</text>
<circle cx="260.00" cy="215.00" r="3" fill="#1f2937"/>
<text x="278.30" y="223.07" font-size="15" fill="#111827" text-anchor="middle" font-family="Outfit, sans-serif" font-weight="600">B</text>
<circle cx="140.00" cy="65.00" r="3" fill="#1f2937"/>
<text x="138.67" y="45.04" font-size="15" fill="#111827" text-anchor="middle" font-family="Outfit, sans-serif" font-weight="600">C</text>
</svg>
